<svg width="88" height="48" viewBox="0 0 88 48" fill="none" xmlns="http://www.w3.org/2000/svg">
<g clip-path="url(#clip0_337_10)">
<path fill-rule="evenodd" clip-rule="evenodd" d="M5.33663 30.4949C6.0464 30.489 6.74972 30.63 7.40236 30.9091C8.02952 31.1753 8.59936 31.5601 9.08062 32.0424C9.56124 32.5241 9.94587 33.0928 10.214 33.7182C10.4931 34.3717 10.634 35.0758 10.6281 35.7864V41.102H5.33663C4.63022 41.1056 3.93054 40.9647 3.2806 40.6879C1.99392 40.1476 0.96872 39.1268 0.422989 37.8424C0.00771176 36.8727 -0.10512 35.8003 0.0992633 34.7653C0.303646 33.7305 0.815721 32.7814 1.56845 32.0424C2.05581 31.5596 2.63129 31.1749 3.26365 30.9091C3.91884 30.63 4.62452 30.4891 5.33663 30.4949ZM8.52603 38.9976V35.7864C8.53059 35.3609 8.44818 34.9389 8.28385 34.5465C8.12357 34.1661 7.8908 33.8207 7.59851 33.5293C7.30676 33.2387 6.96242 33.0061 6.58381 32.844C6.19125 32.6799 5.76937 32.5975 5.3439 32.6019C4.71211 32.5958 4.09281 32.778 3.56492 33.1252C3.03703 33.4724 2.62444 33.9688 2.37972 34.5513C2.21428 34.9435 2.13182 35.3656 2.13756 35.7912C2.13087 36.4248 2.31418 37.0458 2.66382 37.5741C3.01346 38.1025 3.5134 38.514 4.09914 38.7554C4.49608 38.9191 4.92182 39.0014 5.35116 38.9976H8.52603ZM17.6075 30.4949V32.597H16.5443C16.1188 32.5924 15.6969 32.6748 15.3044 32.8392C14.928 33.0035 14.5861 33.2377 14.297 33.5293C14.0046 33.8207 13.7719 34.1661 13.6116 34.5465C13.4461 34.9387 13.3637 35.3608 13.3694 35.7864V41.102H11.2286V35.7864C11.2196 35.0765 11.3573 34.3724 11.6331 33.7182C11.9028 33.0908 12.2918 32.5216 12.7786 32.0424C13.2668 31.5607 13.842 31.1761 14.4738 30.9091C15.1236 30.6323 15.8234 30.4914 16.5298 30.4949H17.6075ZM19.7869 32.0545C20.2868 31.5474 20.8863 31.1492 21.5476 30.8849C22.8279 30.3651 24.2605 30.3651 25.541 30.8849C26.2014 31.1492 26.8001 31.5475 27.2991 32.0545L28.0256 32.7811L26.5726 34.2704L25.817 33.5439C25.5147 33.238 25.1529 32.9973 24.7539 32.8367C23.9819 32.5204 23.1164 32.5204 22.3443 32.8367C21.9451 32.997 21.5832 33.2377 21.2812 33.5439C20.9724 33.8348 20.7302 34.1892 20.5716 34.5828C20.255 35.359 20.255 36.2283 20.5716 37.0045C20.733 37.4036 20.9744 37.7655 21.2812 38.0676C21.5745 38.3715 21.9269 38.6121 22.3168 38.7745C22.7066 38.9369 23.1256 39.0178 23.5479 39.0121C23.9697 39.0111 24.3874 38.9289 24.7781 38.77C25.1716 38.6113 25.526 38.3692 25.817 38.0604L26.5726 37.3339L28.0256 38.8208L27.2991 39.5473C26.7988 40.0528 26.2005 40.4508 25.541 40.717C24.2605 41.2368 22.8279 41.2368 21.5476 40.717C20.8872 40.4509 20.2882 40.0529 19.7869 39.5473C19.2845 39.0507 18.8903 38.4554 18.6294 37.7988C18.1256 36.5162 18.1256 35.0905 18.6294 33.8078C18.8896 33.1509 19.2838 32.5555 19.7869 32.0594V32.0545ZM34.1743 30.4949C34.8842 30.4887 35.5876 30.6297 36.2401 30.9091C36.8716 31.1764 37.4468 31.561 37.9353 32.0424C38.422 32.5216 38.8109 33.0908 39.0807 33.7182C39.3598 34.3717 39.5008 35.0758 39.4948 35.7864V41.102H37.3928V35.7864C37.3973 35.3609 37.3149 34.9389 37.1506 34.5465C36.9903 34.1661 36.7576 33.8207 36.4652 33.5293C36.1655 33.2316 35.8099 32.9959 35.4188 32.8359C35.0278 32.6759 34.609 32.5948 34.1865 32.597C33.761 32.5924 33.339 32.6748 32.9465 32.8392C32.1836 33.1638 31.5759 33.7714 31.2514 34.5344C31.0869 34.9268 31.0045 35.3488 31.0092 35.7743V41.102H28.8756V26.2424H30.9777V31.5823C31.4217 31.2336 31.9211 30.9618 32.4549 30.7783C33.0056 30.5881 33.5844 30.4923 34.1671 30.4949H34.1743Z" fill="#1F3F95"/>
<path fill-rule="evenodd" clip-rule="evenodd" d="M59.2293 30.5192V35.8106C59.2328 36.516 59.0927 37.2147 58.8177 37.8643C58.5476 38.4972 58.1587 39.0726 57.6722 39.5594C57.1845 40.0449 56.6093 40.4335 55.977 40.7049C55.3239 40.982 54.6208 41.1222 53.9113 41.1165C53.0728 41.1243 52.2453 40.9255 51.5017 40.5378C50.7741 40.1645 50.1432 39.6274 49.6588 38.9685C49.1759 39.6242 48.5498 40.1609 47.828 40.5378C47.0809 40.9277 46.2489 41.1266 45.4062 41.1165C44.7001 41.1198 44.0007 40.9797 43.3502 40.7049C42.7174 40.4343 42.1421 40.0456 41.655 39.5594C41.1677 39.0732 40.7789 38.4977 40.5096 37.8643C40.2326 37.2152 40.0917 36.5163 40.0955 35.8106V30.5192H42.2217V35.8106C42.22 36.6634 42.5551 37.4824 43.1541 38.0894C43.4465 38.3804 43.7917 38.6131 44.1712 38.7748C44.5637 38.9392 44.9856 39.0216 45.4111 39.017C45.8405 39.0206 46.2661 38.9383 46.6631 38.7748C47.0474 38.6165 47.3965 38.3837 47.6904 38.0899C47.9843 37.796 48.217 37.4469 48.3753 37.0627C48.5387 36.6656 48.6211 36.2399 48.6174 35.8106V30.5192H50.7195V35.8106C50.7158 36.2399 50.7981 36.6657 50.9617 37.0627C51.2809 37.8332 51.8895 38.4479 52.6569 38.7748C53.0502 38.9392 53.4729 39.0216 53.8992 39.017C54.3285 39.0206 54.7542 38.9383 55.1512 38.7748C55.5349 38.6156 55.8837 38.3828 56.1781 38.0894C56.4758 37.7897 56.7115 37.434 56.8715 37.043C57.0315 36.6519 57.1126 36.2332 57.1104 35.8106V30.5192H59.2293ZM65.2837 30.4949C65.9942 30.4887 66.6984 30.6297 67.3518 30.9091C68.6149 31.4497 69.6217 32.4556 70.1634 33.7182C70.4417 34.3719 70.5819 35.076 70.5751 35.7864V41.102H65.2764C64.5708 41.1059 63.8718 40.9649 63.2228 40.6879C61.9406 40.1443 60.9196 39.1241 60.3749 37.8424C59.9586 36.8729 59.8452 35.8002 60.0496 34.7651C60.2541 33.73 60.7667 32.7809 61.5203 32.0424C62.0077 31.5596 62.5831 31.1749 63.2155 30.9091C63.8645 30.6321 64.5635 30.4911 65.2692 30.4949H65.2837ZM68.4731 38.9976V35.7864C68.4777 35.3609 68.3953 34.9389 68.2309 34.5465C67.9056 33.7839 67.2982 33.1765 66.5357 32.8513C66.1422 32.6873 65.7196 32.6049 65.2933 32.6092C64.8709 32.6068 64.452 32.688 64.0609 32.848C63.6699 33.008 63.3142 33.2436 63.0145 33.5415C62.7237 33.8341 62.4912 34.1792 62.3292 34.5586C62.1648 34.9511 62.0824 35.373 62.087 35.7985C62.0847 36.2211 62.1659 36.6398 62.3259 37.0309C62.4859 37.422 62.7215 37.7776 63.0194 38.0773C63.3136 38.3706 63.6624 38.6035 64.0461 38.7627C64.4431 38.9261 64.8689 39.0085 65.2981 39.0049L68.4731 38.9976ZM77.569 30.4949V32.597H76.5059C76.0804 32.5924 75.6584 32.6748 75.266 32.8392C74.5029 33.1638 73.8954 33.7714 73.5708 34.5344C73.4063 34.9268 73.3239 35.3488 73.3285 35.7743V41.102H71.1829V35.7864C71.177 35.0758 71.318 34.3717 71.5971 33.7182C71.866 33.0903 72.255 32.521 72.7425 32.0424C73.2303 31.5602 73.8057 31.1756 74.4377 30.9091C75.0877 30.6323 75.7873 30.4914 76.4937 30.4949H77.569ZM86.4978 37.3677L87.9872 38.8572L87.2606 39.5836C86.7687 40.0783 86.1838 40.4708 85.5397 40.7388C84.8955 41.0067 84.2046 41.1445 83.507 41.1445C82.8093 41.1445 82.1186 41.0067 81.4744 40.7388C80.8302 40.4708 80.2453 40.0783 79.7533 39.5836C79.2477 39.0859 78.8532 38.4867 78.5957 37.8255C78.3471 37.1886 78.219 36.5112 78.218 35.8276C78.2187 35.1486 78.3468 34.4758 78.5957 33.8442C78.856 33.1873 79.2502 32.5918 79.7533 32.0957C80.2546 31.5901 80.8536 31.1921 81.514 30.926C82.7913 30.4103 84.2192 30.4121 85.4952 30.9308C86.1556 31.197 86.7546 31.5949 87.2558 32.1005L87.9823 32.8271L82.1048 38.7142C82.7013 39.0133 83.3774 39.1152 84.0356 39.0051C84.6937 38.8949 85.2998 38.5786 85.7665 38.1015L86.493 37.375L86.4978 37.3677ZM81.2306 33.5657C80.752 34.0312 80.4338 34.6368 80.322 35.2949C80.21 35.9532 80.3103 36.6299 80.6082 37.2273L81.4703 36.3652L82.6981 35.1373C83.1325 34.7031 83.5498 34.2898 83.9501 33.8974C84.3506 33.5052 84.6621 33.1976 84.885 32.9748C84.2975 32.678 83.6325 32.5706 82.9815 32.6672C82.3117 32.7627 81.6931 33.0788 81.2233 33.5657H81.2306Z" fill="#A6CE39"/>
<path fill-rule="evenodd" clip-rule="evenodd" d="M12.6308 43.7949H11.8268V46.9964H11.4781V43.7949H10.6789V43.4656H12.6308V43.7949ZM14.9702 45.8074V45.6185C14.9692 45.4539 14.9357 45.2911 14.8717 45.1394C14.8077 44.9877 14.7145 44.8501 14.5972 44.7346C14.3619 44.4787 14.0363 44.3241 13.6892 44.3036C13.502 44.2907 13.3142 44.3191 13.1393 44.3869C12.9644 44.4548 12.8065 44.5602 12.6768 44.6958C12.544 44.8231 12.4383 44.9759 12.3661 45.1451C12.294 45.3143 12.2567 45.4964 12.2567 45.6803C12.2567 45.8642 12.294 46.0462 12.3661 46.2155C12.4383 46.3846 12.544 46.5374 12.6768 46.6647C12.7996 46.7919 12.9473 46.8925 13.1106 46.9604C13.2739 47.0284 13.4493 47.062 13.6261 47.0595C13.9083 47.0565 14.1825 46.966 14.4107 46.8002C14.6389 46.6344 14.81 46.4017 14.9 46.1343H14.5391C14.4679 46.3092 14.3447 46.458 14.1862 46.5606C14.0276 46.6633 13.8415 46.7148 13.6528 46.7083C13.3994 46.7195 13.1514 46.6327 12.9602 46.4661C12.7669 46.3014 12.646 46.0676 12.6236 45.8147L14.9702 45.8074ZM14.6263 45.4853C14.5846 45.2534 14.4629 45.0435 14.2824 44.892C14.1456 44.7774 13.9812 44.7006 13.8055 44.6692C13.6298 44.6377 13.4489 44.6527 13.2808 44.7126C13.1127 44.7726 12.9632 44.8755 12.847 45.0109C12.7309 45.1465 12.6522 45.31 12.6188 45.4853H14.6263ZM18.0942 46.2239L18.0579 46.3038C17.9424 46.5406 17.7598 46.7383 17.5329 46.8722C17.306 47.0061 17.0448 47.0704 16.7816 47.057C16.4143 47.0572 16.0614 46.9139 15.7984 46.6574C15.6677 46.5322 15.5637 46.3818 15.4927 46.2154C15.4217 46.0489 15.3851 45.8698 15.3851 45.6887C15.3851 45.5077 15.4217 45.3286 15.4927 45.1621C15.5637 44.9956 15.6677 44.8452 15.7984 44.7201C15.9287 44.5887 16.0837 44.4844 16.2546 44.4133C16.4254 44.3422 16.6087 44.3058 16.7938 44.306C17.066 44.3005 17.334 44.3755 17.5638 44.5215C17.7756 44.6459 17.9445 44.8316 18.0482 45.0542L18.099 45.1681H17.6874C17.6084 45.0303 17.4988 44.9125 17.3672 44.8236C17.2356 44.7347 17.0855 44.677 16.9282 44.655C16.7709 44.6331 16.6107 44.6474 16.4598 44.6968C16.3089 44.7463 16.1713 44.8296 16.0575 44.9404C15.9542 45.0328 15.8711 45.1456 15.8136 45.2717C15.7561 45.3978 15.7253 45.5345 15.7233 45.6731C15.7212 45.8116 15.7479 45.9492 15.8017 46.0769C15.8555 46.2046 15.9352 46.3198 16.0357 46.4153C16.132 46.5136 16.2475 46.591 16.3749 46.6427C16.5025 46.6943 16.6393 46.7191 16.7768 46.7156C16.9586 46.7232 17.1392 46.6823 17.3 46.5972C17.4609 46.5121 17.5962 46.3858 17.6922 46.2312L18.0942 46.2239ZM20.6806 46.9964H20.3318V45.4611C20.3328 45.3543 20.3117 45.2485 20.2701 45.1502C20.2284 45.0519 20.167 44.9632 20.0897 44.8896C20.0165 44.8109 19.9276 44.7488 19.8286 44.707C19.7297 44.6652 19.6231 44.645 19.5157 44.6474C19.3057 44.6449 19.1031 44.7249 18.9515 44.8702C18.8766 44.9409 18.8175 45.0266 18.7783 45.1218C18.739 45.217 18.7205 45.3195 18.7238 45.4223V46.9747H18.3703V43.4559H18.7214V44.7516C18.8091 44.6283 18.9238 44.5268 19.057 44.4549C19.19 44.3831 19.338 44.3429 19.4891 44.3374C19.6441 44.3278 19.7993 44.3516 19.9443 44.4072C20.0892 44.4628 20.2205 44.5488 20.3294 44.6596C20.4436 44.7692 20.5339 44.9013 20.5943 45.0476C20.6548 45.194 20.6841 45.3513 20.6806 45.5095V46.9964ZM23.4244 46.9964H23.0756V45.4611C23.0765 45.3543 23.0556 45.2485 23.0139 45.1502C22.9723 45.0519 22.9108 44.9632 22.8335 44.8896C22.7592 44.8145 22.6708 44.7549 22.5732 44.7143C22.4757 44.6736 22.3712 44.6527 22.2656 44.6527C22.16 44.6527 22.0554 44.6736 21.958 44.7143C21.8604 44.7549 21.772 44.8145 21.6977 44.8896C21.62 44.9629 21.5584 45.0516 21.5167 45.15C21.475 45.2484 21.4542 45.3543 21.4556 45.4611V46.9892H21.1044V45.4974C21.0998 45.3411 21.1268 45.1854 21.1838 45.0398C21.2409 44.8941 21.3267 44.7615 21.4362 44.6499C21.6572 44.4327 21.9546 44.311 22.2644 44.311C22.5742 44.311 22.8716 44.4327 23.0926 44.6499C23.202 44.7615 23.2879 44.8941 23.3449 45.0398C23.402 45.1854 23.429 45.3411 23.4244 45.4974V46.9892V46.9964ZM26.5726 45.6863C26.5739 45.8671 26.5381 46.0463 26.4678 46.2128C26.3974 46.3794 26.2939 46.5299 26.1633 46.655C26.0391 46.7819 25.8905 46.8823 25.7264 46.9503C25.5623 47.0183 25.3862 47.0524 25.2087 47.0506C25.0311 47.0488 24.8557 47.0111 24.6931 46.9397C24.5305 46.8684 24.3839 46.765 24.2623 46.6356C24.0124 46.3733 23.8753 46.0233 23.8808 45.661C23.8862 45.2987 24.0336 44.953 24.2914 44.6982C24.4148 44.5666 24.5652 44.4633 24.7325 44.3956C24.8998 44.3277 25.0798 44.2972 25.26 44.306C25.4349 44.3092 25.6074 44.3481 25.7668 44.4202C25.9263 44.4922 26.0694 44.5958 26.1876 44.7249C26.3104 44.8508 26.4072 44.9996 26.4724 45.1628C26.5377 45.3262 26.5701 45.5008 26.5677 45.6766L26.5726 45.6863ZM26.2239 45.6596C26.2195 45.3941 26.1138 45.1403 25.9284 44.9501C25.8413 44.8555 25.7353 44.7803 25.6172 44.7294C25.4991 44.6785 25.3716 44.653 25.2431 44.6547C25.1105 44.6511 24.9787 44.6753 24.8561 44.7258C24.7334 44.7763 24.6228 44.8518 24.5311 44.9477C24.4343 45.042 24.3578 45.1551 24.3062 45.2801C24.2546 45.405 24.2289 45.5391 24.2308 45.6742C24.2228 45.9425 24.3202 46.2033 24.502 46.4007C24.5876 46.4999 24.6931 46.58 24.8116 46.6359C24.93 46.6917 25.0588 46.7222 25.1898 46.7252C25.3257 46.7332 25.4616 46.7102 25.5875 46.6582C25.7132 46.6062 25.8257 46.5265 25.9164 46.425C26.0144 46.3258 26.0912 46.2076 26.142 46.0777C26.1928 45.9477 26.2165 45.8088 26.2117 45.6693L26.2239 45.6596ZM27.3742 46.9964H27.0254V43.4559H27.3742V46.9964ZM30.5588 45.6863C30.5596 45.8673 30.5234 46.0465 30.4526 46.2131C30.3819 46.3796 30.2779 46.53 30.147 46.655C30.0228 46.7819 29.8741 46.8823 29.7101 46.9503C29.546 47.0183 29.37 47.0524 29.1924 47.0506C29.0148 47.0488 28.8395 47.0111 28.6768 46.9397C28.5141 46.8684 28.3676 46.765 28.246 46.6356C28.1228 46.51 28.0258 46.3612 27.9605 46.1979C27.8952 46.0345 27.863 45.8598 27.8658 45.6839C27.8637 45.5008 27.8989 45.3192 27.9692 45.1502C28.0396 44.9812 28.1436 44.8282 28.275 44.7007C28.3988 44.5693 28.5493 44.4663 28.7165 44.3986C28.8837 44.3309 29.0636 44.3001 29.2437 44.3084C29.4212 44.3109 29.5964 44.3501 29.758 44.4235C29.9196 44.4968 30.0644 44.6028 30.1834 44.7346C30.3066 44.8603 30.4037 45.0091 30.4694 45.1724C30.5351 45.3356 30.5679 45.5103 30.566 45.6863H30.5588ZM30.2076 45.6596C30.2044 45.3939 30.0986 45.1396 29.9122 44.9501C29.8253 44.8558 29.7197 44.7808 29.602 44.7299C29.4844 44.679 29.3574 44.6533 29.2292 44.6547C29.0942 44.6492 28.9596 44.6724 28.8344 44.7229C28.7092 44.7735 28.5961 44.8501 28.5027 44.9477C28.4064 45.0424 28.3301 45.1556 28.2786 45.2804C28.227 45.4052 28.2011 45.5391 28.2024 45.6742C28.194 45.943 28.2924 46.2043 28.4761 46.4007C28.5611 46.4999 28.666 46.5801 28.7842 46.636C28.9022 46.6919 29.0308 46.7223 29.1614 46.7252C29.2993 46.735 29.4376 46.7131 29.5656 46.661C29.6937 46.6089 29.8081 46.5282 29.9 46.425C29.9981 46.3258 30.0749 46.2076 30.1258 46.0777C30.1765 45.9477 30.2003 45.8088 30.1955 45.6693L30.2076 45.6596ZM33.6996 45.6596V46.8706C33.7012 47.0297 33.6652 47.187 33.5945 47.3297C33.5237 47.4724 33.4204 47.5963 33.2928 47.6915C33.0464 47.887 32.7421 47.9955 32.4276 47.9998C32.113 48.0043 31.8059 47.9044 31.554 47.7157C31.3441 47.5484 31.1931 47.3186 31.123 47.0595H31.462C31.5228 47.2492 31.6457 47.4129 31.8108 47.5244C31.9948 47.6646 32.2228 47.7345 32.4539 47.7212C32.6848 47.7078 32.9034 47.6123 33.07 47.4517C33.1589 47.3723 33.2299 47.2748 33.2783 47.1659C33.3268 47.0569 33.3516 46.9389 33.3509 46.8196V46.5775C33.2318 46.719 33.0836 46.8333 32.9165 46.9127C32.7494 46.9921 32.5673 47.0347 32.3823 47.0376C32.2021 47.0454 32.0224 47.0144 31.8553 46.9467C31.6882 46.879 31.5376 46.7763 31.4136 46.6453C31.157 46.39 31.0104 46.0444 31.005 45.6826C30.9996 45.3206 31.1357 44.9708 31.3845 44.7079C31.5062 44.5778 31.6531 44.4737 31.8162 44.402C31.9792 44.3302 32.1552 44.2923 32.3333 44.2905C32.5115 44.2886 32.6882 44.323 32.8527 44.3915C33.0172 44.4598 33.1661 44.561 33.2904 44.6885C33.4226 44.8123 33.5272 44.9626 33.5972 45.1295C33.6674 45.2964 33.7015 45.4763 33.6972 45.6572L33.6996 45.6596ZM33.3509 45.6863C33.3575 45.5469 33.3348 45.4076 33.2844 45.2775C33.234 45.1474 33.1568 45.0292 33.058 44.9308C32.9656 44.8277 32.8512 44.7468 32.7234 44.694C32.5956 44.6412 32.4574 44.6179 32.3193 44.6256C32.1888 44.6315 32.0608 44.6636 31.9429 44.7203C31.8252 44.7768 31.7201 44.8567 31.634 44.9549C31.4512 45.1522 31.3522 45.4126 31.3579 45.6815C31.3589 45.8142 31.3862 45.9455 31.4382 46.0676C31.4901 46.1899 31.5657 46.3006 31.6606 46.3934C31.7524 46.4885 31.8628 46.5637 31.9848 46.6146C32.1068 46.6654 32.238 46.6907 32.3701 46.6889C32.4991 46.6908 32.627 46.6654 32.7455 46.6145C32.8641 46.5636 32.9705 46.4883 33.058 46.3934C33.2436 46.2046 33.3486 45.9511 33.3509 45.6863ZM34.5134 44.0613H34.1646V43.4511H34.5134V44.0613ZM34.5134 46.9916H34.1646V44.3786H34.5134V46.9964V46.9916ZM37.7028 45.8026H35.3659C35.3877 46.055 35.5076 46.289 35.7 46.454C35.8921 46.6208 36.1409 46.7075 36.395 46.6962C36.5836 46.702 36.7695 46.6502 36.9279 46.5476C37.0862 46.4451 37.2096 46.2967 37.2814 46.1222H37.6519C37.567 46.3922 37.3972 46.6275 37.1676 46.7931C36.9423 46.9569 36.6712 47.0459 36.3926 47.0473C36.2155 47.05 36.0396 47.0164 35.8759 46.9484C35.7123 46.8805 35.5642 46.7798 35.4409 46.6526C35.3084 46.5252 35.203 46.3723 35.1309 46.2031C35.0589 46.034 35.0219 45.852 35.0219 45.6682C35.0219 45.4843 35.0589 45.3024 35.1309 45.1332C35.203 44.9641 35.3084 44.8112 35.4409 44.6837C35.5705 44.5481 35.7284 44.4426 35.9033 44.3748C36.0783 44.307 36.266 44.2786 36.4532 44.2914C36.8004 44.312 37.1259 44.4665 37.3613 44.7225C37.5975 44.9553 37.7316 45.2724 37.7342 45.604V45.7929L37.7028 45.8026ZM37.3588 45.4804C37.3164 45.2483 37.1938 45.0384 37.0126 44.8871C36.8274 44.7388 36.5972 44.658 36.3599 44.658C36.1227 44.658 35.8924 44.7388 35.7073 44.8871C35.5258 45.0394 35.4046 45.2516 35.3659 45.4853L37.3588 45.4804ZM39.6329 46.207C39.6425 46.3209 39.6256 46.4355 39.5836 46.5417C39.5416 46.648 39.4756 46.7431 39.3907 46.8196C39.3085 46.9032 39.2093 46.9681 39.0998 47.0099C38.9904 47.0516 38.8732 47.0694 38.7562 47.0619C38.6508 47.0562 38.5476 47.0297 38.4524 46.984C38.3572 46.9382 38.272 46.8742 38.2017 46.7955C38.0558 46.6393 37.976 46.4328 37.9788 46.2191H38.3421V46.3063C38.3467 46.3603 38.3621 46.4127 38.3876 46.4606C38.4129 46.5084 38.4477 46.5507 38.4899 46.5848C38.5297 46.628 38.578 46.6625 38.6316 46.6862C38.6854 46.71 38.7435 46.7224 38.8022 46.7228C38.8663 46.7248 38.93 46.714 38.99 46.6912C39.0498 46.6683 39.1045 46.6338 39.1509 46.5896C39.2292 46.5036 39.2717 46.391 39.2696 46.2748C39.2702 46.1653 39.2322 46.0592 39.1621 45.975C39.0922 45.8908 38.9948 45.834 38.887 45.8147L38.5819 45.7178C38.4356 45.6821 38.3057 45.5977 38.2137 45.4784C38.1218 45.3591 38.0731 45.2121 38.0757 45.0615C38.0693 44.9649 38.0845 44.8681 38.1201 44.778C38.1557 44.688 38.2108 44.607 38.2816 44.5409C38.4215 44.3996 38.6108 44.3181 38.8095 44.3132C38.9917 44.3043 39.1704 44.3659 39.3084 44.4852C39.3796 44.5398 39.438 44.6092 39.4798 44.6887C39.5216 44.7681 39.5457 44.8556 39.5506 44.9452V45.0228H39.1824V44.9768C39.1833 44.9322 39.1731 44.8881 39.1528 44.8484C39.1325 44.8087 39.1028 44.7746 39.0662 44.7492C38.9876 44.6934 38.8937 44.6638 38.7974 44.6644C38.7014 44.666 38.6096 44.7041 38.5407 44.7709C38.4734 44.834 38.4334 44.9209 38.4292 45.0131C38.418 45.2004 38.5294 45.3336 38.7635 45.4126L39.0662 45.5144C39.2226 45.5553 39.3616 45.6454 39.4628 45.7715C39.5639 45.8975 39.6219 46.0527 39.628 46.2142L39.6329 46.207ZM42.7205 46.9868H42.3888V43.4511H42.7375V46.9868H42.7205ZM45.5225 46.9868H45.1738V45.4611C45.1747 45.3543 45.1536 45.2485 45.112 45.1502C45.0703 45.0519 45.0089 44.9632 44.9316 44.8896C44.8572 44.8145 44.7688 44.7549 44.6714 44.7143C44.5739 44.6736 44.4693 44.6527 44.3636 44.6527C44.258 44.6527 44.1535 44.6736 44.056 44.7143C43.9586 44.7549 43.8701 44.8145 43.7958 44.8896C43.718 44.9628 43.6563 45.0515 43.6146 45.1499C43.5729 45.2483 43.5521 45.3542 43.5536 45.4611V46.9892H43.2025V45.4974C43.1979 45.3411 43.225 45.1854 43.282 45.0398C43.3389 44.8941 43.4248 44.7615 43.5342 44.6499C43.7556 44.4325 44.0535 44.3108 44.3636 44.3108C44.6739 44.3108 44.9717 44.4325 45.1932 44.6499C45.3023 44.7616 45.3877 44.8944 45.4443 45.04C45.5009 45.1857 45.5275 45.3412 45.5225 45.4974V46.9892V46.9868ZM46.944 47.0425C46.3079 47.0425 45.985 46.7712 45.9753 46.2288V43.4608H46.3241V44.3738H46.9319V44.7007H46.3241V46.1876C46.3241 46.5775 46.5275 46.7712 46.9319 46.7712V47.0619L46.944 47.0425ZM49.6757 45.7977H47.3242C47.3468 46.0506 47.4676 46.2845 47.6608 46.4492C47.8521 46.6158 48.1001 46.7025 48.3534 46.6913C48.5421 46.6979 48.7284 46.6463 48.8868 46.5436C49.0453 46.4411 49.1685 46.2923 49.2398 46.1174H49.6127C49.5228 46.3844 49.3523 46.6168 49.1244 46.7826C48.8967 46.9483 48.623 47.0391 48.3413 47.0425C47.9826 47.0371 47.6397 46.8936 47.384 46.642C47.1284 46.3903 46.9794 46.0498 46.9683 45.6912C46.9613 45.5027 46.9948 45.3149 47.0661 45.1404C47.1376 44.9659 47.2453 44.8085 47.3823 44.6788C47.5122 44.5435 47.67 44.4382 47.845 44.3704C48.0198 44.3027 48.2075 44.274 48.3946 44.2866C48.7425 44.307 49.0689 44.4615 49.3052 44.7176C49.5398 44.9513 49.6729 45.268 49.6757 45.5991V45.788V45.7977ZM49.3318 45.4756C49.2901 45.2437 49.1684 45.0338 48.9879 44.8823C48.8022 44.7341 48.5716 44.6535 48.334 44.6535C48.0965 44.6535 47.866 44.7341 47.6802 44.8823C47.4944 45.0342 47.3683 45.2469 47.3242 45.4829L49.3318 45.4756ZM51.1166 44.6668C50.9733 44.6669 50.8339 44.7137 50.7195 44.8C50.6401 44.8608 50.5707 44.9335 50.5136 45.0155C50.4502 45.1405 50.4202 45.2798 50.4264 45.4199V46.9868H50.0656V44.3786H50.3925V44.7516C50.4643 44.6108 50.5787 44.4964 50.7195 44.4246C50.8431 44.3565 50.9828 44.3231 51.1239 44.3277V44.6764L51.1166 44.6668ZM53.565 46.9868H53.2163V45.4611C53.2172 45.3543 53.1961 45.2485 53.1545 45.1502C53.1128 45.0519 53.0514 44.9632 52.974 44.8896C52.8996 44.8145 52.8109 44.7548 52.7132 44.7141C52.6156 44.6734 52.5108 44.6525 52.405 44.6525C52.2991 44.6525 52.1944 44.6734 52.0967 44.7141C51.999 44.7548 51.9104 44.8145 51.8358 44.8896C51.7585 44.9632 51.6972 45.0519 51.6555 45.1502C51.6138 45.2485 51.5928 45.3543 51.5937 45.4611V46.9892H51.2523V45.4974C51.2476 45.3411 51.2747 45.1854 51.3317 45.0398C51.3887 44.8941 51.4745 44.7615 51.584 44.6499C51.805 44.4327 52.1024 44.311 52.4123 44.311C52.722 44.311 53.0195 44.4327 53.2404 44.6499C53.35 44.7615 53.4357 44.8941 53.4927 45.0398C53.5498 45.1854 53.5768 45.3411 53.5723 45.4974V46.9892L53.565 46.9868ZM56.7132 45.6742V46.9868H56.3644V46.5775C56.2456 46.7203 56.0977 46.836 55.9305 46.917C55.7634 46.998 55.5809 47.0423 55.3952 47.0471C55.2095 47.052 55.025 47.0171 54.8538 46.9449C54.6827 46.8726 54.529 46.7647 54.4028 46.6284C54.1529 46.366 54.0159 46.0161 54.0213 45.6538C54.0268 45.2915 54.1742 44.9457 54.4319 44.691C54.5558 44.5603 54.7066 44.458 54.8738 44.3911C55.0411 44.3242 55.2207 44.2943 55.4006 44.3036C55.5769 44.3071 55.7508 44.346 55.9117 44.418C56.0727 44.49 56.2176 44.5935 56.3378 44.7225C56.4613 44.8467 56.5576 44.9952 56.6205 45.1587C56.6836 45.322 56.7117 45.4968 56.7035 45.6718L56.7132 45.6742ZM56.3644 45.6476C56.3634 45.3813 56.2572 45.1263 56.069 44.938C55.9818 44.8437 55.8757 44.7689 55.7576 44.7184C55.6395 44.6679 55.5121 44.6428 55.3836 44.645C55.2513 44.6426 55.1197 44.6673 54.9973 44.7177C54.8748 44.7681 54.764 44.8431 54.6716 44.938C54.5747 45.0322 54.498 45.1452 54.4464 45.2702C54.3948 45.3951 54.3692 45.5293 54.3714 45.6645C54.3667 45.7977 54.3884 45.9305 54.4355 46.0552C54.4824 46.1799 54.5537 46.294 54.6451 46.391C54.7305 46.49 54.8355 46.5705 54.9534 46.6271C55.0713 46.6838 55.1996 46.7156 55.3304 46.7204C55.4681 46.7283 55.6058 46.7053 55.7335 46.6534C55.8612 46.6015 55.9758 46.5218 56.069 46.4201C56.1676 46.3207 56.2446 46.2021 56.2954 46.0717C56.3462 45.9414 56.3698 45.802 56.3644 45.6621V45.6476ZM58.1348 47.0425C57.4987 47.0425 57.1797 46.7712 57.1781 46.2288V43.4608H57.5268V44.3738H58.1348V44.7007H57.5268V46.1876C57.5268 46.5775 57.7303 46.7712 58.1348 46.7712V47.0619V47.0425ZM58.8879 44.0565H58.5391V43.4462H58.8879V44.0565ZM58.8879 46.9868H58.5391V44.3786H58.8879V46.9964V46.9868ZM62.0579 45.6766C62.0591 45.8574 62.0235 46.0366 61.9531 46.2032C61.8828 46.3697 61.7791 46.5202 61.6486 46.6453C61.5244 46.7722 61.3757 46.8726 61.2117 46.9406C61.0476 47.0086 60.8716 47.0427 60.694 47.0409C60.5164 47.0391 60.3411 47.0014 60.1784 46.93C60.0157 46.8588 59.8692 46.7553 59.7476 46.626C59.4976 46.3636 59.3606 46.0136 59.366 45.6513C59.3715 45.289 59.5189 44.9433 59.7766 44.6885C59.9 44.5569 60.0506 44.4536 60.2178 44.3859C60.3851 44.318 60.5651 44.2876 60.7453 44.2963C60.9203 44.2996 61.0927 44.3384 61.2521 44.4105C61.4116 44.4825 61.5547 44.5861 61.6728 44.7152C61.7957 44.8411 61.8925 44.9899 61.9578 45.1532C62.023 45.3165 62.0554 45.4911 62.0531 45.6669L62.0579 45.6766ZM61.7092 45.65C61.7048 45.3844 61.5991 45.1307 61.4137 44.9404C61.3267 44.8458 61.2206 44.7706 61.1025 44.7197C60.9844 44.6688 60.857 44.6433 60.7284 44.645C60.5958 44.6414 60.464 44.6656 60.3413 44.7161C60.2188 44.7666 60.108 44.8421 60.0164 44.938C59.9196 45.0324 59.8431 45.1454 59.7915 45.2704C59.7398 45.3953 59.7142 45.5294 59.7161 45.6645C59.7081 45.9328 59.8054 46.1936 59.9873 46.391C60.0729 46.4902 60.1784 46.5703 60.2968 46.6262C60.4153 46.682 60.5442 46.7125 60.6751 46.7156C60.811 46.7235 60.9469 46.7005 61.0727 46.6485C61.1986 46.5965 61.3109 46.5168 61.4016 46.4153C61.4997 46.3161 61.5765 46.1979 61.6273 46.068C61.6781 45.938 61.7019 45.7991 61.6971 45.6596L61.7092 45.65ZM64.8211 46.9868H64.47V45.4611C64.4714 45.3542 64.4507 45.2483 64.409 45.1499C64.3673 45.0515 64.3055 44.9628 64.2277 44.8896C64.1548 44.8133 64.0672 44.7526 63.9703 44.711C63.8733 44.6694 63.769 44.6477 63.6635 44.6474C63.5568 44.6472 63.4512 44.6685 63.353 44.7101C63.2548 44.7517 63.166 44.8128 63.092 44.8896C63.0146 44.9632 62.9532 45.0519 62.9116 45.1502C62.8699 45.2485 62.8489 45.3543 62.8498 45.4611V46.9892H62.5011V45.4974C62.496 45.3412 62.5227 45.1857 62.5792 45.04C62.6358 44.8944 62.7212 44.7616 62.8304 44.6499C63.0518 44.4325 63.3496 44.3108 63.6598 44.3108C63.97 44.3108 64.2679 44.4325 64.4893 44.6499C64.5988 44.7615 64.6845 44.8941 64.7416 45.0398C64.7986 45.1854 64.8256 45.3411 64.8211 45.4974V46.9892V46.9868ZM67.9692 45.6742V46.9868H67.6205V46.5775C67.5015 46.7203 67.3533 46.8361 67.186 46.9171C67.0187 46.998 66.8359 47.0425 66.65 47.0473C66.4642 47.0521 66.2795 47.0172 66.1081 46.945C65.9368 46.8727 65.7828 46.7648 65.6565 46.6284C65.4084 46.3652 65.2724 46.0156 65.278 45.6538C65.2834 45.292 65.4296 44.9467 65.6856 44.691C65.8098 44.5607 65.9606 44.4587 66.1277 44.3917C66.2949 44.3249 66.4745 44.2948 66.6543 44.3036C66.8307 44.3065 67.0046 44.3452 67.1657 44.4172C67.3268 44.4892 67.4716 44.5931 67.5915 44.7225C67.7153 44.8466 67.812 44.995 67.8754 45.1584C67.9388 45.3219 67.9674 45.4967 67.9596 45.6718L67.9692 45.6742ZM67.6205 45.6476C67.6184 45.3816 67.5124 45.1269 67.3251 44.938C67.2377 44.8439 67.1315 44.7692 67.0135 44.7188C66.8955 44.6684 66.7682 44.6432 66.6397 44.645C66.5069 44.6422 66.375 44.6668 66.2521 44.7172C66.1292 44.7676 66.018 44.8428 65.9253 44.938C65.7387 45.1295 65.6322 45.3851 65.6276 45.6524C65.6231 45.9198 65.721 46.1788 65.9012 46.3765C65.9862 46.4754 66.0908 46.5556 66.2083 46.6124C66.3258 46.669 66.4537 46.7008 66.5841 46.7059C66.7218 46.714 66.8596 46.6913 66.9874 46.6394C67.1152 46.5874 67.2298 46.5076 67.3227 46.4056C67.4215 46.3063 67.4989 46.1878 67.5502 46.0574C67.6014 45.9271 67.6253 45.7876 67.6205 45.6476ZM68.7829 46.9868H68.4464V43.4559H68.7854V46.9964L68.7829 46.9868ZM73.5053 46.9868H72.4906C72.2499 46.9965 72.0142 46.9163 71.8295 46.7615C71.7414 46.6796 71.6727 46.579 71.6283 46.4672C71.5839 46.3554 71.565 46.235 71.5728 46.1149V43.4511H71.9336V46.1876C71.9375 46.2563 71.9549 46.3235 71.9849 46.3854C72.0148 46.4473 72.0566 46.5028 72.108 46.5484C72.2198 46.634 72.3601 46.6739 72.5003 46.6598H73.5174V46.9988L73.5053 46.9868ZM74.6774 47.0425C74.0413 47.0425 73.7233 46.7712 73.7233 46.2288V43.4608H74.072V44.3738H74.6774V44.7007H74.072V46.1876C74.072 46.5775 74.273 46.7712 74.6774 46.7712V47.0619V47.0425ZM77.2904 45.7033V43.4753H76.9417V44.7951C76.8228 44.653 76.6748 44.5379 76.5077 44.4577C76.3406 44.3775 76.1583 44.334 75.9731 44.3301C75.7929 44.3227 75.6133 44.3539 75.4462 44.4215C75.2792 44.4892 75.1285 44.5918 75.0043 44.7225C74.874 44.8502 74.7708 45.0028 74.701 45.1714C74.631 45.3399 74.5958 45.5208 74.5975 45.7033C74.5948 45.8789 74.6268 46.0534 74.6916 46.2167C74.7564 46.3801 74.8529 46.529 74.9753 46.655C75.093 46.7835 75.2358 46.8863 75.395 46.9572C75.5541 47.0279 75.7262 47.0652 75.9004 47.0667C76.0827 47.0744 76.2645 47.0434 76.434 46.9757C76.6034 46.9081 76.7566 46.8054 76.8836 46.6744C77.016 46.5509 77.1205 46.4006 77.1902 46.2336C77.26 46.0666 77.2933 45.8866 77.288 45.7057L77.2904 45.7033ZM76.9417 45.6766C76.948 45.816 76.9252 45.9552 76.8748 46.0852C76.8243 46.2154 76.7473 46.3335 76.6487 46.4322C76.5564 46.535 76.442 46.6155 76.314 46.6675C76.186 46.7196 76.0479 46.7418 75.91 46.7325C75.7796 46.7288 75.6513 46.6981 75.5333 46.6422C75.4153 46.5864 75.3102 46.5066 75.2247 46.408C75.0424 46.2105 74.9435 45.9502 74.9486 45.6815C74.9466 45.5463 74.9722 45.4122 75.0238 45.2872C75.0755 45.1623 75.1521 45.0492 75.249 44.9549C75.3405 44.8591 75.4513 44.7835 75.5739 44.7331C75.6965 44.6826 75.8284 44.6583 75.9609 44.662C76.09 44.6595 76.218 44.6845 76.3366 44.7355C76.4553 44.7865 76.5616 44.862 76.6487 44.9574C76.8366 45.1486 76.9419 45.406 76.9417 45.6742V45.6766Z" fill="#1F3F95"/>
<path fill-rule="evenodd" clip-rule="evenodd" d="M56.3282 0.594109C58.2419 0.578859 60.1381 0.958933 61.8981 1.71051C65.3111 3.16474 68.0302 5.88131 69.4877 9.29289C70.2386 11.0531 70.6178 12.9492 70.6017 14.8628V29.2018H56.3282C54.4236 29.2114 52.5372 28.8315 50.7849 28.0853C47.3288 26.6215 44.578 23.87 43.1154 20.4133C42.3784 18.6523 41.9989 16.7622 41.9989 14.8532C41.9989 12.9441 42.3784 11.054 43.1154 9.29289C43.8385 7.60132 44.8849 6.06714 46.1957 4.7764C47.5188 3.47646 49.0759 2.43867 50.7849 1.71779C52.5372 0.971626 54.4236 0.591708 56.3282 0.601374V0.594109ZM64.93 23.5349V14.8676C64.9381 13.7189 64.7106 12.5807 64.2617 11.5233C63.3884 9.4512 61.7423 7.80084 59.6725 6.92204C58.6152 6.47284 57.477 6.24536 56.3282 6.25364C54.6255 6.24147 52.9574 6.73446 51.5349 7.67029C50.1124 8.60612 48.9994 9.94276 48.3365 11.5112C47.8857 12.5681 47.6573 13.7065 47.6657 14.8556C47.659 15.9956 47.8786 17.1258 48.3117 18.1804C48.7449 19.2349 49.3831 20.1932 50.1892 20.9993C50.9955 21.8055 51.9536 22.4436 53.0083 22.8768C54.0628 23.31 55.193 23.5296 56.3331 23.5228L64.93 23.5349Z" fill="#1F3F95"/>
<path fill-rule="evenodd" clip-rule="evenodd" d="M56.316 6.02845C57.5037 6.01584 58.6812 6.24918 59.7742 6.7138C61.888 7.61757 63.5724 9.30098 64.4772 11.4143C64.9424 12.5074 65.1773 13.6846 65.1674 14.8725V23.7651H56.316C55.1345 23.7718 53.964 23.5361 52.8772 23.0724C50.7307 22.166 49.0226 20.4579 48.1161 18.3114C47.6589 17.2191 47.4235 16.0469 47.4235 14.8628C47.4235 13.6788 47.6589 12.5066 48.1161 11.4143C48.5663 10.3639 49.217 9.41138 50.0317 8.61C50.8522 7.80419 51.8176 7.16081 52.8772 6.7138C53.964 6.25017 55.1345 6.01444 56.316 6.02119V6.02845ZM61.6438 20.2536V14.8798C61.6488 14.1677 61.5079 13.4623 61.2297 12.8068C60.6849 11.526 59.665 10.5061 58.3842 9.96133C57.7284 9.68115 57.0219 9.53938 56.3088 9.5448C55.2522 9.53707 54.217 9.84284 53.3341 10.4236C52.4513 11.0042 51.7605 11.8336 51.3491 12.8068C51.0709 13.4623 50.93 14.1677 50.935 14.8798C50.9312 15.5988 51.072 16.3111 51.3491 16.9746C51.6135 17.6178 52.0028 18.2021 52.4947 18.694C52.9864 19.1857 53.5708 19.575 54.214 19.8395C54.8774 20.1165 55.5898 20.2574 56.3088 20.2536H61.6438Z" fill="#A6CE39"/>
<path fill-rule="evenodd" clip-rule="evenodd" d="M55.3885 12.6881C54.9532 12.8507 54.576 13.1387 54.3044 13.5157C54.0329 13.8927 53.8792 14.3418 53.8628 14.8061C53.8466 15.2705 53.9683 15.7292 54.2127 16.1244C54.4572 16.5196 54.8132 16.8333 55.236 17.026C55.6588 17.2188 56.1292 17.2819 56.5878 17.2072C57.0464 17.1326 57.4725 16.9236 57.8124 16.6068C58.1522 16.29 58.3905 15.8795 58.497 15.4272C58.6035 14.9749 58.5735 14.5012 58.4108 14.066C58.1922 13.483 57.7512 13.0105 57.1845 12.7522C56.618 12.4939 55.9721 12.4708 55.3885 12.6881Z" fill="url(#paint0_radial_337_10)"/>
<path fill-rule="evenodd" clip-rule="evenodd" d="M72.338 0.100087C72.1954 0.153432 72.0716 0.247918 71.9827 0.371589C71.8936 0.495259 71.8433 0.642556 71.838 0.794837C71.8328 0.947121 71.8728 1.09754 71.9531 1.22707C72.0333 1.35659 72.1501 1.4594 72.2889 1.52247C72.4275 1.58555 72.5819 1.60606 72.7323 1.58141C72.8826 1.55677 73.0223 1.48807 73.1336 1.38402C73.2449 1.27996 73.3228 1.14522 73.3575 0.996854C73.3923 0.848484 73.3821 0.693156 73.3285 0.550525C73.2568 0.359567 73.1122 0.204888 72.9265 0.120438C72.7408 0.0359881 72.5292 0.0286688 72.338 0.100087Z" fill="url(#paint1_radial_337_10)"/>
<path fill-rule="evenodd" clip-rule="evenodd" d="M69.3909 0.0395501C69.2764 0.0821853 69.1772 0.157799 69.1058 0.25683C69.0342 0.35586 68.9938 0.47386 68.9893 0.595911C68.9849 0.717961 69.0168 0.83858 69.0809 0.942516C69.1451 1.04645 69.2386 1.12904 69.3496 1.17983C69.4607 1.23062 69.5844 1.24734 69.7049 1.22788C69.8255 1.20841 69.9376 1.15363 70.027 1.07045C70.1164 0.987289 70.1792 0.879463 70.2074 0.760624C70.2356 0.641785 70.2278 0.517264 70.1852 0.402806C70.1572 0.326596 70.1143 0.25669 70.0592 0.197118C70.004 0.137548 69.9376 0.0894907 69.8637 0.0557204C69.7899 0.0219501 69.71 0.00313467 69.6289 0.000359407C69.5477 -0.00241586 69.4668 0.0109035 69.3909 0.0395501Z" fill="url(#paint2_radial_337_10)"/>
<path fill-rule="evenodd" clip-rule="evenodd" d="M73.8178 2.48549C73.6329 2.55446 73.4726 2.67671 73.3572 2.83677C73.2418 2.99684 73.1764 3.18754 73.1693 3.38475C73.1623 3.58196 73.214 3.77683 73.3177 3.94472C73.4213 4.1126 73.5725 4.24595 73.7521 4.32792C73.9316 4.40989 74.1314 4.43678 74.3261 4.4052C74.521 4.37362 74.702 4.28499 74.8464 4.1505C74.9908 4.01602 75.0921 3.84173 75.1375 3.64968C75.1828 3.45763 75.1702 3.25643 75.1012 3.07155C75.0557 2.94859 74.9864 2.83585 74.8972 2.73979C74.8079 2.64373 74.7005 2.56625 74.5813 2.51179C74.462 2.45733 74.3332 2.42698 74.2021 2.42246C74.0711 2.41795 73.9405 2.43937 73.8178 2.48549Z" fill="url(#paint3_radial_337_10)"/>
<path fill-rule="evenodd" clip-rule="evenodd" d="M71.7859 5.50291C71.5355 5.59634 71.3184 5.76191 71.1621 5.97868C71.0059 6.19545 70.9174 6.45369 70.9079 6.72075C70.8983 6.9878 70.9682 7.2517 71.1086 7.47905C71.2491 7.70641 71.4538 7.88702 71.6968 7.99806C71.9399 8.1091 72.2104 8.14558 72.4742 8.10288C72.738 8.06019 72.9832 7.94024 73.1789 7.7582C73.3745 7.57615 73.5117 7.3402 73.5733 7.08014C73.6348 6.8201 73.618 6.54764 73.5246 6.29723C73.4627 6.13087 73.3685 5.97835 73.2476 5.84838C73.1267 5.71842 72.9813 5.61356 72.8198 5.5398C72.6583 5.46603 72.4839 5.42481 72.3065 5.41847C72.1291 5.41214 71.9522 5.44084 71.7859 5.50291Z" fill="url(#paint4_radial_337_10)"/>
<path fill-rule="evenodd" clip-rule="evenodd" d="M67.7392 8.65114C67.4617 8.75587 67.2213 8.94044 67.0486 9.1816C66.8758 9.42284 66.7784 9.70978 66.7686 10.0062C66.7588 10.3028 66.8371 10.5955 66.9934 10.8476C67.1499 11.0996 67.3774 11.2997 67.6475 11.4226C67.9174 11.5454 68.2178 11.5855 68.5106 11.5379C68.8034 11.4902 69.0755 11.3568 69.2926 11.1547C69.5097 10.9524 69.662 10.6905 69.7303 10.4018C69.7987 10.1132 69.78 9.81067 69.6765 9.53262C69.6076 9.34729 69.5028 9.17733 69.368 9.03262C69.2332 8.88787 69.0711 8.7712 68.8911 8.68929C68.711 8.60738 68.5166 8.56184 68.3189 8.55529C68.1212 8.54875 67.9243 8.58132 67.7392 8.65114Z" fill="url(#paint5_radial_337_10)"/>
<path fill-rule="evenodd" clip-rule="evenodd" d="M62.8595 11.3538C62.5661 11.4627 62.3116 11.656 62.1283 11.9095C61.9449 12.1631 61.8409 12.4652 61.8293 12.778C61.8178 13.0906 61.8992 13.3996 62.0634 13.666C62.2275 13.9324 62.467 14.1441 62.7515 14.2743C63.036 14.4045 63.3527 14.4474 63.6616 14.3975C63.9705 14.3476 64.2576 14.2073 64.4867 13.9942C64.7158 13.7811 64.8765 13.5048 64.9485 13.2004C65.0205 12.8958 65.0006 12.5769 64.8913 12.2837C64.7449 11.8912 64.4487 11.5728 64.0677 11.3984C63.6868 11.2241 63.2523 11.208 62.8595 11.3538Z" fill="url(#paint6_radial_337_10)"/>
<path fill-rule="evenodd" clip-rule="evenodd" d="M47.8836 15.6524C47.573 15.768 47.3036 15.9732 47.1097 16.242C46.9157 16.5107 46.8058 16.8309 46.7938 17.1621C46.7818 17.4933 46.8683 17.8207 47.0423 18.1028C47.2164 18.3848 47.4701 18.609 47.7716 18.7468C48.073 18.8846 48.4084 18.93 48.7356 18.8772C49.0628 18.8244 49.3671 18.6756 49.6098 18.4499C49.8524 18.2242 50.0228 17.9316 50.0992 17.6091C50.1756 17.2865 50.1546 16.9485 50.0389 16.638C49.8828 16.2222 49.5684 15.8852 49.1646 15.7005C48.7607 15.5159 48.3002 15.4986 47.8836 15.6524Z" fill="url(#paint7_radial_337_10)"/>
<path fill-rule="evenodd" clip-rule="evenodd" d="M42.8004 16.0931C42.5418 16.1899 42.3175 16.3612 42.1562 16.5855C41.9948 16.8098 41.9036 17.0768 41.8939 17.3529C41.8842 17.629 41.9566 17.9018 42.102 18.1367C42.2473 18.3716 42.4589 18.5583 42.7103 18.673C42.9617 18.7876 43.2413 18.8252 43.514 18.781C43.7868 18.7368 44.0403 18.6127 44.2424 18.4244C44.4446 18.2362 44.5865 17.9923 44.6501 17.7234C44.7137 17.4546 44.6962 17.1729 44.5998 16.914C44.536 16.7417 44.4387 16.5836 44.3136 16.449C44.1884 16.3144 44.038 16.2058 43.8708 16.1295C43.7036 16.0532 43.5229 16.0108 43.3393 16.0044C43.1556 15.9982 42.9724 16.0284 42.8004 16.0931Z" fill="url(#paint8_radial_337_10)"/>
<path fill-rule="evenodd" clip-rule="evenodd" d="M37.7608 14.7708C37.5018 14.8673 37.2772 15.0384 37.1155 15.2625C36.9537 15.4867 36.8621 15.7537 36.8522 16.03C36.8422 16.3061 36.9144 16.5791 37.0596 16.8143C37.2048 17.0495 37.4165 17.2364 37.6679 17.3512C37.9193 17.466 38.1991 17.5037 38.472 17.4596C38.7448 17.4154 38.9984 17.2913 39.2007 17.1029C39.403 16.9146 39.5449 16.6705 39.6084 16.4015C39.672 16.1325 39.6543 15.8508 39.5577 15.5917C39.4277 15.2451 39.1656 14.964 38.8288 14.8102C38.492 14.6564 38.108 14.6421 37.7608 14.7708Z" fill="url(#paint9_radial_337_10)"/>
<path fill-rule="evenodd" clip-rule="evenodd" d="M35.1236 12.3733C34.9301 12.4453 34.7623 12.5732 34.6414 12.7405C34.5205 12.908 34.452 13.1076 34.4446 13.3139C34.4372 13.5203 34.491 13.7242 34.5996 13.8999C34.7081 14.0756 34.8662 14.2152 35.054 14.301C35.242 14.3868 35.451 14.4149 35.6548 14.3819C35.8587 14.3488 36.0481 14.256 36.1992 14.1152C36.3503 13.9744 36.4562 13.792 36.5036 13.5909C36.5509 13.39 36.5376 13.1795 36.4653 12.986C36.3679 12.7274 36.1722 12.5178 35.9208 12.403C35.6695 12.2883 35.3829 12.2775 35.1236 12.3733Z" fill="url(#paint10_radial_337_10)"/>
<path fill-rule="evenodd" clip-rule="evenodd" d="M37.5453 9.60284C37.3836 9.66116 37.243 9.76631 37.1414 9.90489C37.0397 10.0435 36.9817 10.2092 36.9747 10.3809C36.9676 10.5525 37.0119 10.7225 37.1019 10.8689C37.1919 11.0153 37.3235 11.1316 37.4798 11.2028C37.6362 11.2741 37.8102 11.2972 37.9798 11.2692C38.1493 11.2411 38.3067 11.1631 38.4316 11.0452C38.5567 10.9273 38.6437 10.7748 38.6817 10.6072C38.7196 10.4396 38.7068 10.2644 38.6448 10.1042C38.5638 9.89316 38.4032 9.72249 38.1976 9.62871C37.9919 9.53493 37.7577 9.52569 37.5453 9.60284Z" fill="url(#paint11_radial_337_10)"/>
<path fill-rule="evenodd" clip-rule="evenodd" d="M40.5846 7.92461C40.4709 7.96689 40.3724 8.04196 40.3014 8.1403C40.2304 8.23865 40.1902 8.35585 40.186 8.47705C40.1816 8.59825 40.2133 8.71801 40.2772 8.82115C40.341 8.92427 40.434 9.00622 40.5444 9.05645C40.6547 9.10667 40.7775 9.12311 40.8972 9.10347C41.0169 9.08391 41.1281 9.02925 41.2166 8.9464C41.3052 8.8636 41.3673 8.75635 41.3948 8.63825C41.4225 8.52015 41.4144 8.39652 41.3716 8.28301C41.3146 8.13132 41.1996 8.00842 41.0522 7.94124C40.9046 7.87407 40.7365 7.86808 40.5846 7.92461Z" fill="url(#paint12_radial_337_10)"/>
</g>
<defs>
<radialGradient id="paint0_radial_337_10" cx="0" cy="0" r="1" gradientUnits="userSpaceOnUse" gradientTransform="translate(55.6235 14.657) scale(2.34906 2.34906)">
<stop stop-color="#299CD7"/>
<stop offset="0.13" stop-color="#2788C9"/>
<stop offset="0.36" stop-color="#2368B2"/>
<stop offset="0.59" stop-color="#2151A2"/>
<stop offset="0.81" stop-color="#204498"/>
<stop offset="1" stop-color="#1F3F95"/>
</radialGradient>
<radialGradient id="paint1_radial_337_10" cx="0" cy="0" r="1" gradientUnits="userSpaceOnUse" gradientTransform="translate(72.4132 0.744262) scale(0.770103)">
<stop stop-color="#299CD7"/>
<stop offset="0.13" stop-color="#2788C9"/>
<stop offset="0.36" stop-color="#2368B2"/>
<stop offset="0.59" stop-color="#2151A2"/>
<stop offset="0.81" stop-color="#204498"/>
<stop offset="1" stop-color="#1F3F95"/>
</radialGradient>
<radialGradient id="paint2_radial_337_10" cx="0" cy="0" r="1" gradientUnits="userSpaceOnUse" gradientTransform="translate(69.4515 0.557796) scale(0.617537 0.617535)">
<stop stop-color="#299CD7"/>
<stop offset="0.13" stop-color="#2788C9"/>
<stop offset="0.36" stop-color="#2368B2"/>
<stop offset="0.59" stop-color="#2151A2"/>
<stop offset="0.81" stop-color="#204498"/>
<stop offset="1" stop-color="#1F3F95"/>
</radialGradient>
<radialGradient id="paint3_radial_337_10" cx="0" cy="0" r="1" gradientUnits="userSpaceOnUse" gradientTransform="translate(73.9171 3.32098) scale(0.997743)">
<stop stop-color="#299CD7"/>
<stop offset="0.13" stop-color="#2788C9"/>
<stop offset="0.36" stop-color="#2368B2"/>
<stop offset="0.59" stop-color="#2151A2"/>
<stop offset="0.81" stop-color="#204498"/>
<stop offset="1" stop-color="#1F3F95"/>
</radialGradient>
<radialGradient id="paint4_radial_337_10" cx="0" cy="0" r="1" gradientUnits="userSpaceOnUse" gradientTransform="translate(71.9214 6.63868) scale(1.35131)">
<stop stop-color="#299CD7"/>
<stop offset="0.13" stop-color="#2788C9"/>
<stop offset="0.36" stop-color="#2368B2"/>
<stop offset="0.59" stop-color="#2151A2"/>
<stop offset="0.81" stop-color="#204498"/>
<stop offset="1" stop-color="#1F3F95"/>
</radialGradient>
<radialGradient id="paint5_radial_337_10" cx="0" cy="0" r="1" gradientUnits="userSpaceOnUse" gradientTransform="translate(67.8893 9.91289) scale(1.50146)">
<stop stop-color="#299CD7"/>
<stop offset="0.13" stop-color="#2788C9"/>
<stop offset="0.36" stop-color="#2368B2"/>
<stop offset="0.59" stop-color="#2151A2"/>
<stop offset="0.81" stop-color="#204498"/>
<stop offset="1" stop-color="#1F3F95"/>
</radialGradient>
<radialGradient id="paint6_radial_337_10" cx="0" cy="0" r="1" gradientUnits="userSpaceOnUse" gradientTransform="translate(63.0169 12.6785) scale(1.58138)">
<stop stop-color="#299CD7"/>
<stop offset="0.13" stop-color="#2788C9"/>
<stop offset="0.36" stop-color="#2368B2"/>
<stop offset="0.59" stop-color="#2151A2"/>
<stop offset="0.81" stop-color="#204498"/>
<stop offset="1" stop-color="#1F3F95"/>
</radialGradient>
<radialGradient id="paint7_radial_337_10" cx="0" cy="0" r="1" gradientUnits="userSpaceOnUse" gradientTransform="translate(48.0507 17.0594) scale(1.67582)">
<stop stop-color="#299CD7"/>
<stop offset="0.13" stop-color="#2788C9"/>
<stop offset="0.36" stop-color="#2368B2"/>
<stop offset="0.59" stop-color="#2151A2"/>
<stop offset="0.81" stop-color="#204498"/>
<stop offset="1" stop-color="#1F3F95"/>
</radialGradient>
<radialGradient id="paint8_radial_337_10" cx="0" cy="0" r="1" gradientUnits="userSpaceOnUse" gradientTransform="translate(42.9409 17.2652) scale(1.39732)">
<stop stop-color="#299CD7"/>
<stop offset="0.13" stop-color="#2788C9"/>
<stop offset="0.36" stop-color="#2368B2"/>
<stop offset="0.59" stop-color="#2151A2"/>
<stop offset="0.81" stop-color="#204498"/>
<stop offset="1" stop-color="#1F3F95"/>
</radialGradient>
<radialGradient id="paint9_radial_337_10" cx="0" cy="0" r="1" gradientUnits="userSpaceOnUse" gradientTransform="translate(37.8988 15.9429) scale(1.39733 1.39732)">
<stop stop-color="#299CD7"/>
<stop offset="0.13" stop-color="#2788C9"/>
<stop offset="0.36" stop-color="#2368B2"/>
<stop offset="0.59" stop-color="#2151A2"/>
<stop offset="0.81" stop-color="#204498"/>
<stop offset="1" stop-color="#1F3F95"/>
</radialGradient>
<radialGradient id="paint10_radial_337_10" cx="0" cy="0" r="1" gradientUnits="userSpaceOnUse" gradientTransform="translate(35.2181 13.2476) scale(1.04376)">
<stop stop-color="#299CD7"/>
<stop offset="0.13" stop-color="#2788C9"/>
<stop offset="0.36" stop-color="#2368B2"/>
<stop offset="0.59" stop-color="#2151A2"/>
<stop offset="0.81" stop-color="#204498"/>
<stop offset="1" stop-color="#1F3F95"/>
</radialGradient>
<radialGradient id="paint11_radial_337_10" cx="0" cy="0" r="1" gradientUnits="userSpaceOnUse" gradientTransform="translate(37.6179 10.327) scale(0.864549)">
<stop stop-color="#299CD7"/>
<stop offset="0.13" stop-color="#2788C9"/>
<stop offset="0.36" stop-color="#2368B2"/>
<stop offset="0.59" stop-color="#2151A2"/>
<stop offset="0.81" stop-color="#204498"/>
<stop offset="1" stop-color="#1F3F95"/>
</radialGradient>
<radialGradient id="paint12_radial_337_10" cx="0" cy="0" r="1" gradientUnits="userSpaceOnUse" gradientTransform="translate(40.6452 8.44527) scale(0.612692)">
<stop stop-color="#299CD7"/>
<stop offset="0.13" stop-color="#2788C9"/>
<stop offset="0.36" stop-color="#2368B2"/>
<stop offset="0.59" stop-color="#2151A2"/>
<stop offset="0.81" stop-color="#204498"/>
<stop offset="1" stop-color="#1F3F95"/>
</radialGradient>
<clipPath id="clip0_337_10">
<rect width="88" height="48" fill="white"/>
</clipPath>
</defs>
</svg>
