<svg width="108" height="59" viewBox="0 0 108 59" fill="none" xmlns="http://www.w3.org/2000/svg">
<g clip-path="url(#clip0_811_7913)">
<path fill-rule="evenodd" clip-rule="evenodd" d="M6.5495 37.4829C7.42058 37.4756 8.28375 37.6489 9.08471 37.992C9.85441 38.3192 10.5538 38.7922 11.1444 39.385C11.7343 39.9771 12.2063 40.6761 12.5353 41.4449C12.8779 42.2482 13.0509 43.1136 13.0436 43.987V50.5208H6.5495C5.68255 50.5252 4.82385 50.352 4.0262 50.0118C2.44708 49.3477 1.18888 48.0929 0.519122 46.5142C0.00946443 45.3223 -0.129011 44.0041 0.121823 42.732C0.372657 41.46 1.00111 40.2934 1.92492 39.385C2.52304 38.7916 3.22931 38.3188 4.00539 37.992C4.80948 37.649 5.67555 37.4757 6.5495 37.4829ZM10.4638 47.9341V43.987C10.4694 43.464 10.3682 42.9453 10.1665 42.463C9.96984 41.9954 9.68416 41.5709 9.32544 41.2127C8.96738 40.8554 8.54479 40.5696 8.08013 40.3703C7.59836 40.1686 7.08059 40.0674 6.55843 40.0727C5.78304 40.0653 5.02299 40.2891 4.37513 40.7159C3.72727 41.1427 3.22091 41.7529 2.92057 42.4689C2.71752 42.9509 2.61633 43.4698 2.62336 43.9929C2.61516 44.7717 2.84013 45.535 3.26924 46.1845C3.69833 46.8339 4.31191 47.3396 5.03076 47.6364C5.51792 47.8377 6.04042 47.9388 6.56734 47.9341H10.4638ZM21.6092 37.4829V40.0667H20.3043C19.7822 40.061 19.2644 40.1623 18.7826 40.3644C18.3207 40.5663 17.9012 40.8542 17.5463 41.2127C17.1875 41.5709 16.9019 41.9954 16.7052 42.463C16.5021 42.945 16.4009 43.4639 16.4079 43.987V50.5208H13.7806V43.987C13.7696 43.1145 13.9385 42.249 14.2769 41.4449C14.608 40.6736 15.0854 39.974 15.6828 39.385C16.2819 38.7929 16.9879 38.3202 17.7633 37.992C18.5608 37.6517 19.4196 37.4786 20.2865 37.4829H21.6092ZM24.284 39.3999C24.8975 38.7766 25.6332 38.2871 26.4447 37.9623C28.0161 37.3233 29.7743 37.3233 31.3457 37.9623C32.1563 38.2872 32.891 38.7767 33.5035 39.3999L34.3951 40.293L32.6119 42.1236L31.6845 41.2306C31.3135 40.8547 30.8695 40.5588 30.3797 40.3614C29.4323 39.9725 28.3701 39.9725 27.4225 40.3614C26.9326 40.5584 26.4885 40.8542 26.1178 41.2306C25.7388 41.5882 25.4416 42.0239 25.247 42.5075C24.8584 43.4617 24.8584 44.5302 25.247 45.4843C25.445 45.9749 25.7413 46.4197 26.1178 46.7911C26.4778 47.1645 26.9103 47.4603 27.3888 47.6599C27.8672 47.8595 28.3814 47.9589 28.8997 47.9519C29.4173 47.9507 29.93 47.8497 30.4095 47.6543C30.8925 47.4593 31.3274 47.1617 31.6845 46.7821L32.6119 45.8891L34.3951 47.7168L33.5035 48.6098C32.8894 49.2311 32.1552 49.7204 31.3457 50.0475C29.7743 50.6865 28.0161 50.6865 26.4447 50.0475C25.6343 49.7205 24.8991 49.2313 24.284 48.6098C23.6674 47.9994 23.1836 47.2676 22.8634 46.4607C22.2451 44.884 22.2451 43.1316 22.8634 41.555C23.1827 40.7476 23.6665 40.0157 24.284 39.4059V39.3999ZM41.9412 37.4829C42.8124 37.4753 43.6756 37.6486 44.4765 37.992C45.2516 38.3205 45.9575 38.7933 46.5569 39.385C47.1542 39.974 47.6316 40.6736 47.9627 41.4449C48.3052 42.2482 48.4783 43.1136 48.4709 43.987V50.5208H45.8912V43.987C45.8967 43.464 45.7956 42.9453 45.5939 42.463C45.3972 41.9954 45.1116 41.5709 44.7528 41.2127C44.3849 40.8467 43.9485 40.557 43.4686 40.3604C42.9887 40.1637 42.4747 40.064 41.9561 40.0667C41.4339 40.061 40.9161 40.1623 40.4343 40.3644C39.498 40.7634 38.7523 41.5102 38.354 42.4481C38.1521 42.9305 38.051 43.4491 38.0567 43.9722V50.5208H35.4383V32.2559H38.0181V38.8195C38.563 38.3909 39.1759 38.0568 39.8311 37.8312C40.5069 37.5974 41.2173 37.4797 41.9324 37.4829H41.9412Z" fill="#F8F8F8"/>
<path fill-rule="evenodd" clip-rule="evenodd" d="M72.6906 37.5135V44.0175C72.6948 44.8845 72.5229 45.7433 72.1854 46.5418C71.8538 47.3197 71.3766 48.027 70.7795 48.6254C70.1811 49.2221 69.4751 49.6998 68.699 50.0334C67.8976 50.374 67.0346 50.5463 66.1639 50.5394C65.1348 50.5489 64.1192 50.3046 63.2066 49.828C62.3137 49.3692 61.5394 48.7089 60.9449 47.8991C60.3523 48.705 59.5838 49.3647 58.698 49.828C57.7811 50.3073 56.76 50.5517 55.7258 50.5394C54.8592 50.5434 54.0009 50.3712 53.2026 50.0334C52.426 49.7008 51.7199 49.223 51.1221 48.6254C50.5241 48.0278 50.0468 47.3204 49.7164 46.5418C49.3764 45.744 49.2034 44.8849 49.2081 44.0175V37.5135H51.8176V44.0175C51.8155 45.0657 52.2268 46.0724 52.9618 46.8185C53.3207 47.1762 53.7443 47.4622 54.2101 47.6609C54.6918 47.8631 55.2096 47.9643 55.7318 47.9587C56.2588 47.9631 56.7812 47.862 57.2684 47.6609C57.74 47.4664 58.1685 47.1803 58.5292 46.8191C58.8898 46.4579 59.1754 46.0288 59.3697 45.5565C59.5702 45.0684 59.6713 44.5452 59.6669 44.0175V37.5135H62.2466V44.0175C62.2422 44.5452 62.3432 45.0685 62.5439 45.5565C62.9357 46.5035 63.6826 47.2592 64.6244 47.6609C65.1071 47.8631 65.6258 47.9643 66.149 47.9587C66.676 47.9631 67.1984 47.862 67.6856 47.6609C68.1565 47.4652 68.5846 47.1791 68.9458 46.8185C69.3113 46.4501 69.6005 46.013 69.7968 45.5323C69.9932 45.0516 70.0928 44.5369 70.0901 44.0175V37.5135H72.6906ZM80.1209 37.4836C80.9929 37.476 81.8572 37.6493 82.6591 37.9927C84.2093 38.6572 85.4448 39.8936 86.1096 41.4456C86.4512 42.2491 86.6232 43.1145 86.6149 43.9877V50.5215H80.1119C79.246 50.5262 78.3882 50.353 77.5916 50.0125C76.0181 49.3443 74.7649 48.0903 74.0964 46.5149C73.5856 45.3232 73.4464 44.0047 73.6973 42.7323C73.9482 41.46 74.5773 40.2935 75.5022 39.3857C76.1003 38.7923 76.8066 38.3195 77.5826 37.9927C78.3792 37.6522 79.237 37.4789 80.1031 37.4836H80.1209ZM84.0352 47.9348V43.9877C84.0408 43.4647 83.9397 42.9461 83.7379 42.4637C83.3387 41.5263 82.5933 40.7798 81.6574 40.38C81.1746 40.1784 80.6559 40.0771 80.1328 40.0824C79.6143 40.0795 79.1002 40.1793 78.6202 40.3759C78.1403 40.5726 77.7038 40.8623 77.336 41.2284C76.9792 41.5881 76.6938 42.0122 76.4949 42.4785C76.2932 42.961 76.1921 43.4796 76.1977 44.0026C76.1949 44.522 76.2945 45.0367 76.4909 45.5175C76.6872 45.9981 76.9764 46.4353 77.342 46.8037C77.7031 47.1641 78.1312 47.4504 78.6021 47.6461C79.0893 47.847 79.6119 47.9483 80.1387 47.9438L84.0352 47.9348ZM95.1983 37.4836V40.0674H93.8936C93.3714 40.0617 92.8535 40.163 92.3719 40.3651C91.4354 40.7641 90.6898 41.5109 90.2914 42.4488C90.0896 42.9312 89.9885 43.4499 89.9941 43.9729V50.5215H87.3609V43.9877C87.3536 43.1143 87.5266 42.2489 87.8692 41.4456C88.1992 40.6738 88.6766 39.974 89.2749 39.3857C89.8736 38.793 90.5797 38.3202 91.3554 37.9927C92.153 37.6524 93.0117 37.4793 93.8786 37.4836H95.1983ZM106.156 45.9315L107.984 47.7622L107.093 48.6552C106.489 49.2632 105.771 49.7457 104.981 50.075C104.19 50.4043 103.342 50.5738 102.486 50.5738C101.63 50.5738 100.782 50.4043 99.9913 50.075C99.2008 49.7457 98.4829 49.2632 97.8791 48.6552C97.2586 48.0433 96.7745 47.3068 96.4584 46.4941C96.1533 45.7113 95.9961 44.8786 95.9948 44.0383C95.9957 43.2038 96.1529 42.3768 96.4584 41.6004C96.7778 40.793 97.2617 40.0611 97.8791 39.4513C98.4943 38.8298 99.2295 38.3406 100.04 38.0135C101.608 37.3796 103.36 37.3818 104.926 38.0194C105.736 38.3466 106.472 38.8357 107.087 39.4572L107.978 40.3503L100.765 47.5865C101.497 47.9542 102.327 48.0794 103.135 47.944C103.942 47.8086 104.686 47.4198 105.259 46.8334L106.151 45.9404L106.156 45.9315ZM99.6921 41.2581C99.1048 41.8303 98.7142 42.5747 98.577 43.3836C98.4396 44.1927 98.5627 45.0245 98.9282 45.7588L99.9863 44.6991L101.493 43.1899C102.026 42.6562 102.538 42.1481 103.03 41.6659C103.521 41.1837 103.904 40.8057 104.177 40.5318C103.456 40.167 102.64 40.035 101.841 40.1537C101.019 40.2711 100.26 40.6597 99.6832 41.2581H99.6921Z" fill="#F8F8F8"/>
<path fill-rule="evenodd" clip-rule="evenodd" d="M15.5015 53.831H14.5148V57.7662H14.0868V53.831H13.106V53.4262H15.5015V53.831ZM18.3725 56.3046V56.0724C18.3712 55.8701 18.3302 55.67 18.2517 55.4835C18.1731 55.2971 18.0587 55.128 17.9148 54.9859C17.6259 54.6714 17.2263 54.4814 16.8003 54.4561C16.5706 54.4403 16.3402 54.4753 16.1255 54.5586C15.9108 54.642 15.717 54.7716 15.5579 54.9383C15.3949 55.0948 15.2652 55.2826 15.1766 55.4905C15.088 55.6985 15.0423 55.9223 15.0423 56.1484C15.0423 56.3744 15.088 56.5982 15.1766 56.8062C15.2652 57.0141 15.3949 57.2019 15.5579 57.3584C15.7086 57.5148 15.8898 57.6384 16.0902 57.7219C16.2906 57.8054 16.506 57.8468 16.723 57.8436C17.0692 57.84 17.4058 57.7287 17.6858 57.5249C17.966 57.3211 18.1758 57.0351 18.2864 56.7065H17.8434C17.7561 56.9215 17.6049 57.1043 17.4104 57.2305C17.2157 57.3567 16.9873 57.42 16.7557 57.4119C16.4447 57.4257 16.1403 57.3191 15.9057 57.1143C15.6685 56.9119 15.5201 56.6244 15.4925 56.3136L18.3725 56.3046ZM17.9505 55.9088C17.8993 55.6237 17.75 55.3656 17.5284 55.1794C17.3605 55.0386 17.1587 54.9442 16.9431 54.9055C16.7274 54.8669 16.5054 54.8853 16.2992 54.959C16.0929 55.0327 15.9094 55.1591 15.7668 55.3256C15.6243 55.4923 15.5277 55.6933 15.4866 55.9088H17.9505ZM22.2065 56.8166L22.1619 56.9148C22.0202 57.2059 21.7961 57.4489 21.5176 57.6134C21.2392 57.7781 20.9186 57.8571 20.5956 57.8406C20.1448 57.8409 19.7117 57.6647 19.3889 57.3494C19.2286 57.1955 19.1009 57.0106 19.0138 56.8061C18.9266 56.6015 18.8817 56.3813 18.8817 56.1587C18.8817 55.9363 18.9266 55.7161 19.0138 55.5115C19.1009 55.3068 19.2286 55.122 19.3889 54.9681C19.5489 54.8067 19.7391 54.6785 19.9488 54.5911C20.1585 54.5037 20.3834 54.4589 20.6105 54.4591C20.9447 54.4524 21.2735 54.5445 21.5556 54.7241C21.8154 54.8769 22.0228 55.1053 22.15 55.3788L22.2124 55.5188H21.7072C21.6102 55.3495 21.4758 55.2047 21.3143 55.0953C21.1528 54.9861 20.9686 54.9151 20.7755 54.8882C20.5825 54.8612 20.3858 54.8788 20.2007 54.9395C20.0154 55.0004 19.8466 55.1027 19.7069 55.239C19.5802 55.3525 19.4782 55.4912 19.4076 55.6462C19.337 55.8011 19.2993 55.9692 19.2968 56.1395C19.2942 56.3098 19.327 56.4789 19.393 56.6359C19.459 56.7929 19.5568 56.9345 19.6802 57.0518C19.7984 57.1727 19.9401 57.2678 20.0965 57.3313C20.253 57.3948 20.4209 57.4253 20.5897 57.4209C20.8128 57.4303 21.0345 57.38 21.2318 57.2755C21.4293 57.1708 21.5953 57.0156 21.7131 56.8255L22.2065 56.8166ZM25.3808 57.7662H24.9527V55.8789C24.9539 55.7477 24.928 55.6177 24.877 55.4968C24.8258 55.376 24.7504 55.267 24.6555 55.1765C24.5657 55.0798 24.4565 55.0034 24.3351 54.9521C24.2137 54.9007 24.0829 54.8758 23.9511 54.8788C23.6933 54.8757 23.4447 54.974 23.2586 55.1527C23.1668 55.2395 23.0942 55.3449 23.0461 55.4619C22.9979 55.5789 22.9752 55.7049 22.9792 55.8313V57.7394H22.5454V53.4143H22.9763V55.0068C23.0838 54.8553 23.2247 54.7305 23.3881 54.6422C23.5514 54.5539 23.7329 54.5046 23.9184 54.4978C24.1086 54.486 24.2991 54.5153 24.477 54.5835C24.655 54.6518 24.8161 54.7576 24.9497 54.8937C25.0899 55.0285 25.2006 55.1909 25.2748 55.3708C25.349 55.5506 25.385 55.744 25.3808 55.9385V57.7662ZM28.7481 57.7662H28.3201V55.8789C28.3212 55.7477 28.2954 55.6177 28.2443 55.4968C28.1932 55.376 28.1178 55.267 28.0229 55.1765C27.9317 55.0842 27.8232 55.011 27.7035 54.961C27.5838 54.911 27.4556 54.8853 27.326 54.8853C27.1964 54.8853 27.068 54.911 26.9484 54.961C26.8287 55.011 26.7202 55.0842 26.629 55.1765C26.5336 55.2666 26.458 55.3756 26.4069 55.4965C26.3557 55.6175 26.3302 55.7477 26.3318 55.8789V57.7572H25.9008V55.9236C25.8952 55.7314 25.9284 55.5401 25.9983 55.3611C26.0684 55.1821 26.1736 55.0191 26.308 54.8818C26.5792 54.6149 26.9442 54.4653 27.3244 54.4653C27.7047 54.4653 28.0697 54.6149 28.3409 54.8818C28.4752 55.0191 28.5806 55.1821 28.6505 55.3611C28.7206 55.5401 28.7537 55.7314 28.7481 55.9236V57.7572V57.7662ZM32.6118 56.1558C32.6134 56.378 32.5695 56.5983 32.4832 56.8029C32.3968 57.0077 32.2697 57.1927 32.1095 57.3465C31.9571 57.5024 31.7747 57.6259 31.5733 57.7095C31.3719 57.793 31.1558 57.8349 30.938 57.8327C30.72 57.8305 30.5048 57.7842 30.3051 57.6965C30.1056 57.6088 29.9257 57.4816 29.7765 57.3227C29.4697 57.0003 29.3015 56.57 29.3082 56.1246C29.3149 55.6793 29.4958 55.2544 29.8121 54.9413C29.9636 54.7794 30.1482 54.6525 30.3536 54.5692C30.5589 54.4859 30.7798 54.4484 31.0009 54.4591C31.2156 54.4631 31.4272 54.5109 31.6229 54.5995C31.8186 54.688 31.9943 54.8154 32.1393 54.974C32.29 55.1287 32.4088 55.3117 32.4889 55.5124C32.569 55.7132 32.6088 55.9278 32.6059 56.1439L32.6118 56.1558ZM32.1839 56.123C32.1784 55.7967 32.0487 55.4846 31.8213 55.2509C31.7144 55.1345 31.5842 55.0421 31.4393 54.9796C31.2944 54.917 31.1379 54.8856 30.9802 54.8877C30.8174 54.8834 30.6556 54.9131 30.5052 54.9751C30.3546 55.0372 30.2188 55.1301 30.1064 55.248C29.9876 55.3639 29.8936 55.5029 29.8304 55.6565C29.767 55.81 29.7354 55.9749 29.7379 56.1409C29.7279 56.4707 29.8475 56.7912 30.0707 57.0339C30.1757 57.1558 30.3051 57.2543 30.4505 57.323C30.5958 57.3916 30.754 57.4291 30.9147 57.4328C31.0815 57.4425 31.2483 57.4143 31.4028 57.3504C31.5572 57.2865 31.6952 57.1885 31.8064 57.0637C31.9268 56.9418 32.021 56.7965 32.0834 56.6369C32.1457 56.4771 32.1748 56.3063 32.1689 56.1349L32.1839 56.123ZM33.5956 57.7662H33.1676V53.4143H33.5956V57.7662ZM37.5039 56.1558C37.5049 56.3782 37.4605 56.5985 37.3737 56.8033C37.2868 57.0079 37.1592 57.1928 36.9986 57.3465C36.8461 57.5024 36.6637 57.6259 36.4624 57.7095C36.261 57.793 36.0449 57.8349 35.827 57.8327C35.6091 57.8305 35.3939 57.7842 35.1942 57.6965C34.9946 57.6088 34.8148 57.4816 34.6655 57.3227C34.5144 57.1683 34.3953 56.9854 34.3152 56.7846C34.235 56.5838 34.1955 56.3691 34.1989 56.1528C34.1964 55.9278 34.2396 55.7045 34.3259 55.4968C34.4123 55.289 34.5399 55.101 34.7012 54.9443C34.853 54.7828 35.0378 54.6562 35.243 54.5729C35.4482 54.4898 35.6689 54.4519 35.89 54.4621C36.1079 54.4652 36.3228 54.5134 36.5211 54.6035C36.7196 54.6937 36.8973 54.8239 37.0432 54.9859C37.1944 55.1404 37.3137 55.3233 37.3943 55.5241C37.4749 55.7248 37.5152 55.9395 37.5128 56.1558H37.5039ZM37.0729 56.123C37.0691 55.7963 36.9392 55.4838 36.7104 55.2509C36.6038 55.135 36.4742 55.0428 36.3298 54.9802C36.1854 54.9177 36.0296 54.8861 35.8722 54.8877C35.7065 54.881 35.5414 54.9096 35.3877 54.9716C35.234 55.0338 35.0952 55.128 34.9805 55.248C34.8624 55.3643 34.7688 55.5034 34.7055 55.6568C34.6423 55.8102 34.6104 55.9749 34.612 56.1409C34.6017 56.4713 34.7224 56.7924 34.9479 57.0339C35.0522 57.1558 35.181 57.2544 35.326 57.3231C35.4709 57.3918 35.6286 57.4292 35.789 57.4328C35.9582 57.4448 36.128 57.4178 36.285 57.3538C36.4422 57.2898 36.5826 57.1906 36.6954 57.0637C36.8159 56.9418 36.9101 56.7965 36.9725 56.6369C37.0348 56.4771 37.064 56.3063 37.0581 56.1349L37.0729 56.123ZM41.3587 56.123V57.6114C41.3606 57.807 41.3163 58.0004 41.2296 58.1758C41.1428 58.3511 41.016 58.5034 40.8593 58.6205C40.5569 58.8608 40.1835 58.9941 39.7974 58.9995C39.4114 59.0049 39.0345 58.8821 38.7254 58.6503C38.4677 58.4447 38.2824 58.1621 38.1964 57.8436H38.6125C38.6871 58.0768 38.8379 58.278 39.0405 58.4151C39.2663 58.5875 39.5462 58.6733 39.8297 58.6569C40.1132 58.6406 40.3814 58.5231 40.586 58.3258C40.695 58.2281 40.7821 58.1084 40.8416 57.9744C40.901 57.8405 40.9314 57.6955 40.9307 57.5488V57.2512C40.7845 57.4252 40.6026 57.5657 40.3976 57.6632C40.1925 57.7608 39.9689 57.8131 39.7419 57.8167C39.5208 57.8264 39.3002 57.7882 39.0951 57.705C38.89 57.6218 38.7052 57.4955 38.5531 57.3346C38.2381 57.0207 38.0582 56.596 38.0516 56.1512C38.0449 55.7063 38.212 55.2764 38.5174 54.9532C38.6667 54.7932 38.8469 54.6653 39.0471 54.5771C39.2472 54.4889 39.4632 54.4423 39.6818 54.4401C39.9004 54.4378 40.1173 54.4801 40.3192 54.5642C40.521 54.6482 40.7039 54.7726 40.8564 54.9294C41.0186 55.0814 41.147 55.2662 41.233 55.4714C41.3191 55.6765 41.3609 55.8976 41.3557 56.1201L41.3587 56.123ZM40.9307 56.1558C40.9388 55.9845 40.9109 55.8133 40.8491 55.6533C40.7871 55.4933 40.6924 55.3481 40.5711 55.2271C40.4578 55.1005 40.3174 55.001 40.1605 54.9361C40.0036 54.8712 39.8341 54.8425 39.6646 54.852C39.5044 54.8592 39.3473 54.8988 39.2027 54.9684C39.0581 55.0378 38.9292 55.1361 38.8235 55.2568C38.5992 55.4992 38.4777 55.8194 38.4846 56.1499C38.486 56.313 38.5194 56.4744 38.5833 56.6245C38.647 56.7747 38.7397 56.9109 38.8562 57.0249C38.9689 57.1419 39.1044 57.2343 39.2541 57.2968C39.4038 57.3593 39.5648 57.3903 39.727 57.3881C39.8853 57.3904 40.0422 57.3593 40.1877 57.2967C40.3332 57.2341 40.4638 57.1415 40.5711 57.0249C40.7989 56.7929 40.9278 56.4813 40.9307 56.1558ZM42.3574 54.1584H41.9293V53.4084H42.3574V54.1584ZM42.3574 57.7603H41.9293V54.5484H42.3574V57.7662V57.7603ZM46.2716 56.2987H43.4036C43.4304 56.609 43.5776 56.8966 43.8136 57.0995C44.0494 57.3044 44.3547 57.411 44.6666 57.3971C44.8981 57.4043 45.1262 57.3406 45.3206 57.2145C45.5149 57.0884 45.6663 56.9061 45.7545 56.6916H46.2092C46.105 57.0234 45.8965 57.3126 45.6147 57.5162C45.3383 57.7175 45.0056 57.8269 44.6637 57.8287C44.4462 57.8319 44.2304 57.7906 44.0295 57.7072C43.8287 57.6237 43.6469 57.4999 43.4956 57.3435C43.333 57.1869 43.2037 56.9989 43.1152 56.791C43.0269 56.5831 42.9814 56.3594 42.9814 56.1335C42.9814 55.9074 43.0269 55.6839 43.1152 55.476C43.2037 55.2681 43.333 55.0801 43.4956 54.9235C43.6547 54.7567 43.8484 54.627 44.0631 54.5438C44.2779 54.4604 44.5082 54.4254 44.738 54.4412C45.1641 54.4665 45.5636 54.6564 45.8525 54.9711C46.1424 55.2572 46.3069 55.647 46.3102 56.0546V56.2868L46.2716 56.2987ZM45.8495 55.9027C45.7973 55.6174 45.6469 55.3594 45.4246 55.1734C45.1972 54.9911 44.9148 54.8918 44.6235 54.8918C44.3324 54.8918 44.0498 54.9911 43.8226 55.1734C43.5998 55.3606 43.4511 55.6214 43.4036 55.9088L45.8495 55.9027ZM48.6404 56.7958C48.6521 56.9358 48.6314 57.0766 48.5799 57.2072C48.5283 57.3379 48.4473 57.4548 48.3431 57.5488C48.2423 57.6515 48.1205 57.7313 47.9861 57.7827C47.8518 57.834 47.708 57.8559 47.5644 57.8466C47.435 57.8396 47.3084 57.807 47.1915 57.7509C47.0747 57.6946 46.9702 57.6159 46.8839 57.5191C46.7049 57.3272 46.6069 57.0733 46.6104 56.8107H47.0562V56.9179C47.0618 56.9842 47.0808 57.0487 47.112 57.1075C47.1431 57.1663 47.1859 57.2182 47.2376 57.2602C47.2864 57.3133 47.3457 57.3557 47.4116 57.3848C47.4776 57.414 47.5488 57.4293 47.6209 57.4299C47.6996 57.4323 47.7778 57.419 47.8513 57.391C47.9247 57.3628 47.9919 57.3204 48.0489 57.2661C48.145 57.1604 48.1971 57.022 48.1945 56.8791C48.1953 56.7446 48.1486 56.6141 48.0626 56.5107C47.9768 56.4072 47.8572 56.3374 47.725 56.3136L47.3505 56.1945C47.1709 56.1507 47.0115 56.0469 46.8986 55.9002C46.7858 55.7536 46.726 55.5729 46.7293 55.3878C46.7215 55.269 46.7401 55.1501 46.7837 55.0394C46.8275 54.9287 46.8951 54.8292 46.982 54.7479C47.1537 54.5743 47.3859 54.4741 47.6299 54.4681C47.8535 54.457 48.0728 54.5327 48.2421 54.6794C48.3294 54.7466 48.4012 54.8319 48.4525 54.9296C48.5038 55.0271 48.5333 55.1348 48.5393 55.2449V55.3402H48.0875V55.2837C48.0886 55.2288 48.076 55.1746 48.0512 55.1258C48.0263 55.0771 47.9897 55.0351 47.9449 55.0039C47.8485 54.9354 47.7332 54.899 47.615 54.8996C47.4972 54.9016 47.3845 54.9485 47.3 55.0306C47.2174 55.1082 47.1683 55.215 47.1632 55.3283C47.1493 55.5585 47.2861 55.7222 47.5733 55.8194L47.9449 55.9445C48.1368 55.9947 48.3074 56.1055 48.4316 56.2605C48.5557 56.4154 48.6268 56.6062 48.6344 56.8047L48.6404 56.7958ZM52.4297 57.7543H52.0226V53.4084H52.4506V57.7543H52.4297ZM55.8685 57.7543H55.4405V55.8789C55.4416 55.7477 55.4158 55.6177 55.3647 55.4968C55.3136 55.376 55.2382 55.267 55.1433 55.1765C55.0521 55.0842 54.9435 55.011 54.824 54.961C54.7043 54.911 54.576 54.8853 54.4463 54.8853C54.3167 54.8853 54.1884 54.911 54.0687 54.961C53.9492 55.011 53.8406 55.0842 53.7494 55.1765C53.6539 55.2665 53.5781 55.3755 53.527 55.4964C53.4758 55.6174 53.4503 55.7476 53.4521 55.8789V57.7572H53.0212V55.9236C53.0156 55.7314 53.0488 55.5401 53.1188 55.3611C53.1887 55.1821 53.2941 55.0191 53.4284 54.8818C53.7001 54.6147 54.0657 54.4651 54.4463 54.4651C54.827 54.4651 55.1926 54.6147 55.4643 54.8818C55.5983 55.0192 55.7031 55.1824 55.7725 55.3614C55.842 55.5404 55.8746 55.7316 55.8685 55.9236V57.7572V57.7543ZM57.6131 57.8228C56.8324 57.8228 56.4361 57.4893 56.4242 56.8226V53.4203H56.8523V54.5425H57.5982V54.9443H56.8523V56.772C56.8523 57.2512 57.1019 57.4893 57.5982 57.4893V57.8466L57.6131 57.8228ZM60.9657 56.2927H58.0797C58.1074 56.6035 58.2557 56.8911 58.4928 57.0934C58.7276 57.2983 59.0319 57.4048 59.3428 57.3911C59.5744 57.3992 59.803 57.3358 59.9975 57.2096C60.192 57.0835 60.3432 56.9006 60.4307 56.6857H60.8883C60.778 57.0138 60.5687 57.2995 60.2891 57.5033C60.0096 57.7069 59.6737 57.8186 59.328 57.8228C58.8877 57.8161 58.4669 57.6397 58.1531 57.3304C57.8393 57.0211 57.6565 56.6025 57.6429 56.1618C57.6344 55.9301 57.6754 55.6993 57.763 55.4847C57.8507 55.2702 57.9829 55.0769 58.151 54.9174C58.3104 54.751 58.5041 54.6217 58.7188 54.5383C58.9334 54.4551 59.1637 54.4199 59.3933 54.4353C59.8203 54.4604 60.2209 54.6503 60.5109 54.9651C60.7989 55.2523 60.9622 55.6416 60.9657 56.0486V56.2808V56.2927ZM60.5436 55.8968C60.4924 55.6118 60.3431 55.3537 60.1215 55.1675C59.8936 54.9854 59.6106 54.8863 59.319 54.8863C59.0276 54.8863 58.7446 54.9854 58.5166 55.1675C58.2886 55.3543 58.1338 55.6157 58.0797 55.9058L60.5436 55.8968ZM62.734 54.9026C62.5582 54.9028 62.387 54.9603 62.2466 55.0664C62.1492 55.1411 62.064 55.2305 61.994 55.3312C61.9162 55.4849 61.8793 55.6561 61.8869 55.8283V57.7543H61.4441V54.5484H61.8454V55.0068C61.9334 54.8338 62.0738 54.6931 62.2466 54.605C62.3984 54.5213 62.5699 54.4802 62.743 54.4859V54.9145L62.734 54.9026ZM65.7388 57.7543H65.3109V55.8789C65.312 55.7477 65.2861 55.6177 65.2351 55.4968C65.1839 55.376 65.1085 55.267 65.0136 55.1765C64.9222 55.0842 64.8134 55.0109 64.6935 54.9608C64.5736 54.9108 64.445 54.8851 64.3152 54.8851C64.1853 54.8851 64.0568 54.9108 63.9369 54.9608C63.817 55.0109 63.7082 55.0842 63.6167 55.1765C63.5218 55.267 63.4465 55.376 63.3953 55.4968C63.3442 55.6177 63.3184 55.7477 63.3195 55.8789V57.7572H62.9005V55.9236C62.8948 55.7314 62.928 55.5401 62.998 55.3611C63.068 55.1821 63.1732 55.0191 63.3076 54.8818C63.5788 54.6149 63.9438 54.4653 64.3241 54.4653C64.7043 54.4653 65.0693 54.6149 65.3405 54.8818C65.4749 55.0191 65.5802 55.1821 65.6501 55.3611C65.7202 55.5401 65.7533 55.7314 65.7478 55.9236V57.7572L65.7388 57.7543ZM69.6025 56.1409V57.7543H69.1745V57.2512C69.0287 57.4267 68.8472 57.5689 68.642 57.6685C68.4369 57.768 68.2129 57.8225 67.985 57.8284C67.7571 57.8344 67.5307 57.7915 67.3205 57.7028C67.1105 57.614 66.9219 57.4813 66.7671 57.3137C66.4604 56.9913 66.2923 56.5611 66.2989 56.1158C66.3056 55.6705 66.4865 55.2454 66.8028 54.9324C66.9549 54.7717 67.1399 54.6459 67.3451 54.5638C67.5504 54.4815 67.7709 54.4448 67.9917 54.4561C68.208 54.4605 68.4214 54.5083 68.6189 54.5968C68.8165 54.6853 68.9943 54.8126 69.1418 54.9711C69.2935 55.1237 69.4116 55.3063 69.4888 55.5072C69.5662 55.708 69.6008 55.9228 69.5906 56.138L69.6025 56.1409ZM69.1745 56.1082C69.1732 55.7809 69.0429 55.4675 68.8119 55.236C68.7049 55.1201 68.5748 55.0281 68.4298 54.9661C68.2848 54.904 68.1285 54.8732 67.9708 54.8758C67.8084 54.8729 67.6469 54.9032 67.4967 54.9652C67.3464 55.0271 67.2104 55.1194 67.097 55.236C66.978 55.3518 66.884 55.4907 66.8206 55.6443C66.7572 55.7979 66.7259 55.9628 66.7285 56.129C66.7227 56.2927 66.7494 56.4559 66.8072 56.6092C66.8648 56.7625 66.9522 56.9028 67.0644 57.022C67.1692 57.1437 67.2981 57.2426 67.4428 57.3122C67.5875 57.3819 67.745 57.4209 67.9055 57.4268C68.0745 57.4365 68.2435 57.4083 68.4002 57.3445C68.557 57.2807 68.6976 57.1827 68.8119 57.0577C68.9329 56.9356 69.0275 56.7898 69.0898 56.6295C69.1522 56.4694 69.1811 56.2979 69.1745 56.1261V56.1082ZM71.3472 57.8228C70.5665 57.8228 70.1751 57.4893 70.1732 56.8226V53.4203H70.6011V54.5425H71.3472V54.9443H70.6011V56.772C70.6011 57.2512 70.8508 57.4893 71.3472 57.4893V57.8466V57.8228ZM72.2715 54.1525H71.8434V53.4023H72.2715V54.1525ZM72.2715 57.7543H71.8434V54.5484H72.2715V57.7662V57.7543ZM76.1619 56.1439C76.1634 56.3661 76.1197 56.5864 76.0333 56.7911C75.947 56.9958 75.8198 57.1808 75.6597 57.3346C75.5072 57.4905 75.3248 57.614 75.1235 57.6975C74.9221 57.7811 74.706 57.823 74.488 57.8208C74.2702 57.8186 74.0549 57.7723 73.8553 57.6845C73.6557 57.5969 73.4759 57.4697 73.3265 57.3108C73.0198 56.9883 72.8517 56.5581 72.8583 56.1127C72.865 55.6674 73.046 55.2425 73.3622 54.9294C73.5136 54.7675 73.6984 54.6406 73.9036 54.5573C74.1089 54.474 74.3298 54.4365 74.5511 54.4472C74.7658 54.4512 74.9774 54.499 75.173 54.5876C75.3687 54.6761 75.5444 54.8035 75.6893 54.9621C75.8402 55.1168 75.959 55.2997 76.0391 55.5004C76.1192 55.7013 76.1589 55.9159 76.156 56.132L76.1619 56.1439ZM75.734 56.1111C75.7286 55.7847 75.5989 55.4728 75.3713 55.239C75.2645 55.1226 75.1344 55.0302 74.9894 54.9677C74.8445 54.9051 74.6881 54.8737 74.5302 54.8758C74.3676 54.8714 74.2058 54.9012 74.0553 54.9632C73.9048 55.0253 73.7689 55.1182 73.6564 55.236C73.5377 55.352 73.4438 55.4909 73.3804 55.6446C73.3171 55.7981 73.2856 55.9629 73.2879 56.129C73.2781 56.4588 73.3976 56.7793 73.6208 57.022C73.7258 57.1439 73.8553 57.2424 74.0006 57.3111C74.146 57.3797 74.3042 57.4172 74.4649 57.4209C74.6317 57.4306 74.7985 57.4024 74.9529 57.3385C75.1073 57.2746 75.2452 57.1766 75.3565 57.0518C75.4769 56.9299 75.5712 56.7846 75.6335 56.6249C75.6959 56.4652 75.725 56.2944 75.7191 56.123L75.734 56.1111ZM79.5531 57.7543H79.1222V55.8789C79.124 55.7476 79.0985 55.6174 79.0474 55.4964C78.9962 55.3755 78.9204 55.2665 78.8249 55.1765C78.7355 55.0828 78.6279 55.0081 78.509 54.957C78.39 54.9059 78.2619 54.8792 78.1324 54.8788C78.0015 54.8785 77.8719 54.9048 77.7514 54.9559C77.6308 55.007 77.522 55.0821 77.4311 55.1765C77.3361 55.267 77.2608 55.376 77.2096 55.4968C77.1585 55.6177 77.1327 55.7477 77.1338 55.8789V57.7572H76.7058V55.9236C76.6996 55.7316 76.7324 55.5404 76.8017 55.3614C76.8712 55.1824 76.9761 55.0192 77.11 54.8818C77.3818 54.6147 77.7472 54.4651 78.128 54.4651C78.5087 54.4651 78.8742 54.6147 79.146 54.8818C79.2803 55.0191 79.3856 55.1821 79.4556 55.3611C79.5255 55.5401 79.5587 55.7314 79.5531 55.9236V57.7572V57.7543ZM83.4168 56.1409V57.7543H82.9888V57.2512C82.8428 57.4267 82.6609 57.5691 82.4555 57.6686C82.2502 57.7681 82.0259 57.8228 81.7978 57.8287C81.5697 57.8346 81.343 57.7917 81.1326 57.7029C80.9224 57.6141 80.7335 57.4814 80.5785 57.3137C80.2739 56.9902 80.1071 56.5605 80.1138 56.1158C80.1205 55.6711 80.3 55.2466 80.6141 54.9324C80.7665 54.7722 80.9517 54.6468 81.1568 54.5645C81.362 54.4824 81.5823 54.4454 81.803 54.4561C82.0194 54.4598 82.2329 54.5073 82.4306 54.5958C82.6283 54.6843 82.8061 54.812 82.9532 54.9711C83.1051 55.1236 83.2238 55.3061 83.3016 55.5069C83.3794 55.7078 83.4145 55.9227 83.4049 56.138L83.4168 56.1409ZM82.9888 56.1082C82.9862 55.7812 82.8561 55.4682 82.6262 55.236C82.519 55.1203 82.3887 55.0286 82.2438 54.9665C82.099 54.9046 81.9428 54.8736 81.7851 54.8758C81.6221 54.8724 81.4603 54.9027 81.3094 54.9646C81.1586 55.0266 81.022 55.1189 80.9084 55.236C80.6793 55.4714 80.5486 55.7855 80.543 56.1142C80.5374 56.4428 80.6576 56.7612 80.8787 57.0042C80.9831 57.1257 81.1114 57.2243 81.2556 57.2941C81.3998 57.3636 81.5568 57.4028 81.7168 57.409C81.8858 57.419 82.0549 57.3911 82.2118 57.3273C82.3687 57.2633 82.5093 57.1652 82.6233 57.0399C82.7446 56.9179 82.8396 56.7722 82.9025 56.6119C82.9654 56.4518 82.9947 56.2802 82.9888 56.1082ZM84.4154 57.7543H84.0024V53.4143H84.4185V57.7662L84.4154 57.7543ZM90.2111 57.7543H88.9657C88.6703 57.7663 88.3811 57.6676 88.1544 57.4774C88.0463 57.3767 87.962 57.2531 87.9074 57.1156C87.853 56.9782 87.8297 56.8302 87.8393 56.6826V53.4084H88.2821V56.772C88.2869 56.8564 88.3083 56.939 88.3451 57.0151C88.3817 57.0912 88.4331 57.1593 88.4962 57.2155C88.6334 57.3207 88.8056 57.3697 88.9776 57.3524H90.2259V57.7691L90.2111 57.7543ZM91.6496 57.8228C90.8689 57.8228 90.4786 57.4893 90.4786 56.8226V53.4203H90.9065V54.5425H91.6496V54.9443H90.9065V56.772C90.9065 57.2512 91.1532 57.4893 91.6496 57.4893V57.8466V57.8228ZM94.8564 56.1767V53.4381H94.4284V55.0604C94.2826 54.8856 94.1009 54.7442 93.8958 54.6456C93.6908 54.5471 93.467 54.4936 93.2397 54.4888C93.0185 54.4796 92.7982 54.518 92.5931 54.6011C92.3881 54.6843 92.2032 54.8105 92.0508 54.9711C91.8909 55.1281 91.7642 55.3157 91.6785 55.5228C91.5926 55.73 91.5494 55.9523 91.5515 56.1767C91.5482 56.3926 91.5875 56.607 91.667 56.8077C91.7465 57.0086 91.8649 57.1916 92.0151 57.3465C92.1596 57.5044 92.3349 57.6308 92.5302 57.7179C92.7255 57.8048 92.9367 57.8507 93.1504 57.8525C93.3742 57.862 93.5974 57.8238 93.8053 57.7407C94.0132 57.6576 94.2013 57.5314 94.3571 57.3703C94.5196 57.2186 94.6479 57.0338 94.7334 56.8285C94.8191 56.6232 94.86 56.4019 94.8534 56.1796L94.8564 56.1767ZM94.4284 56.1439C94.4362 56.3152 94.4081 56.4863 94.3463 56.6461C94.2843 56.8061 94.1898 56.9513 94.0689 57.0726C93.9556 57.199 93.8151 57.2979 93.658 57.3618C93.5011 57.4258 93.3315 57.4531 93.1623 57.4418C93.0022 57.4372 92.8448 57.3995 92.7 57.3308C92.5551 57.2621 92.4262 57.164 92.3212 57.0429C92.0975 56.8001 91.9761 56.4802 91.9824 56.1499C91.9799 55.9837 92.0113 55.8188 92.0747 55.6652C92.1381 55.5117 92.2321 55.3727 92.351 55.2568C92.4634 55.139 92.5993 55.046 92.7497 54.9841C92.9003 54.922 93.0621 54.8922 93.2247 54.8967C93.3831 54.8936 93.5403 54.9244 93.6859 54.987C93.8315 55.0498 93.962 55.1426 94.0689 55.2599C94.2995 55.4949 94.4286 55.8113 94.4284 56.1409V56.1439Z" fill="#F8F8F8"/>
<path fill-rule="evenodd" clip-rule="evenodd" d="M69.1301 0.730035C71.4787 0.711289 73.8059 1.17846 75.9659 2.10228C80.1546 3.88976 83.4917 7.22888 85.2804 11.4223C86.2019 13.5858 86.6673 15.9166 86.6476 18.2687V35.8936H69.1301C66.7927 35.9054 64.4776 35.4385 62.327 34.5213C58.0854 32.722 54.7095 29.3399 52.9144 25.0912C52.0099 22.9265 51.5442 20.6033 51.5442 18.2568C51.5442 15.9102 52.0099 13.587 52.9144 11.4223C53.8018 9.34306 55.086 7.4573 56.6948 5.87077C58.3186 4.27293 60.2296 2.9973 62.327 2.11122C64.4776 1.19407 66.7927 0.727083 69.1301 0.738965V0.730035ZM79.6869 28.9281V18.2746C79.6968 16.8626 79.4176 15.4636 78.8667 14.1638C77.7948 11.6169 75.7747 9.5883 73.2345 8.50811C71.9369 7.95598 70.54 7.67636 69.1301 7.68655C67.0404 7.67158 64.9932 8.27755 63.2475 9.42784C61.5017 10.5781 60.1356 12.2211 59.3222 14.149C58.7688 15.4481 58.4886 16.8473 58.4988 18.2597C58.4907 19.6611 58.7601 21.0502 59.2917 22.3465C59.8233 23.6427 60.6066 24.8205 61.5959 25.8114C62.5854 26.8024 63.7613 27.5868 65.0556 28.1192C66.3499 28.6517 67.7369 28.9216 69.1361 28.9133L79.6869 28.9281Z" fill="#F8F8F8"/>
<path fill-rule="evenodd" clip-rule="evenodd" d="M69.115 7.40949C70.5727 7.39399 72.0177 7.6808 73.3592 8.2519C75.9533 9.36278 78.0205 11.432 79.1309 14.0296C79.7019 15.3732 79.9903 16.8202 79.978 18.2803V29.2107H69.115C67.6649 29.219 66.2284 28.9293 64.8947 28.3594C62.2603 27.2453 60.164 25.1456 59.0515 22.5073C58.4904 21.1647 58.2014 19.7239 58.2014 18.2684C58.2014 16.813 58.4904 15.3722 59.0515 14.0296C59.604 12.7385 60.4025 11.5677 61.4025 10.5826C62.4094 9.59216 63.5942 8.80134 64.8947 8.2519C66.2284 7.68202 67.6649 7.39226 69.115 7.40056V7.40949ZM75.6537 24.8946V18.2893C75.6598 17.414 75.4869 16.5469 75.1454 15.7413C74.4768 14.1669 73.2251 12.9133 71.6532 12.2437C70.8483 11.8993 69.9813 11.725 69.1061 11.7317C67.8094 11.7222 66.5389 12.098 65.4554 12.8118C64.3719 13.5255 63.5242 14.545 63.0192 15.7413C62.6779 16.5469 62.5048 17.414 62.5111 18.2893C62.5064 19.173 62.6792 20.0486 63.0192 20.8641C63.3437 21.6547 63.8216 22.373 64.4252 22.9775C65.0287 23.5819 65.7458 24.0605 66.5352 24.3855C67.3495 24.7261 68.2237 24.8993 69.1061 24.8946H75.6537Z" fill="#F8F8F8"/>
<path fill-rule="evenodd" clip-rule="evenodd" d="M67.9767 15.5957C67.4425 15.7955 66.9795 16.1495 66.6463 16.613C66.313 17.0764 66.1244 17.6284 66.1043 18.1991C66.0843 18.7699 66.2337 19.3338 66.5337 19.8195C66.8337 20.3052 67.2707 20.6909 67.7895 20.9278C68.3084 21.1648 68.8857 21.2422 69.4486 21.1505C70.0114 21.0588 70.5344 20.8019 70.9514 20.4125C71.3685 20.023 71.661 19.5184 71.7917 18.9625C71.9223 18.4066 71.8856 17.8244 71.6859 17.2895C71.4176 16.5728 70.8764 15.992 70.1809 15.6745C69.4856 15.357 68.6929 15.3287 67.9767 15.5957Z" fill="url(#paint0_radial_811_7913)"/>
<path fill-rule="evenodd" clip-rule="evenodd" d="M88.7785 0.12338C88.6034 0.18895 88.4516 0.30509 88.3424 0.457102C88.233 0.609113 88.1713 0.790166 88.1649 0.977344C88.1584 1.16453 88.2075 1.34941 88.306 1.50863C88.4045 1.66783 88.5479 1.7942 88.7182 1.87173C88.8884 1.94926 89.0777 1.97448 89.2623 1.94418C89.4468 1.91389 89.6183 1.82945 89.7549 1.70155C89.8914 1.57364 89.9871 1.40802 90.0297 1.22566C90.0723 1.04329 90.0599 0.852362 89.9941 0.677044C89.9061 0.442325 89.7286 0.252198 89.5007 0.148395C89.2728 0.0445923 89.013 0.0355956 88.7785 0.12338Z" fill="url(#paint1_radial_811_7913)"/>
<path fill-rule="evenodd" clip-rule="evenodd" d="M85.1616 0.0486137C85.0211 0.101019 84.8993 0.193961 84.8116 0.315687C84.7238 0.437412 84.6742 0.582453 84.6687 0.732474C84.6633 0.882494 84.7024 1.03076 84.7811 1.15851C84.8598 1.28627 84.9746 1.38778 85.1109 1.45021C85.2472 1.51264 85.399 1.53319 85.5469 1.50926C85.6949 1.48534 85.8325 1.418 85.9422 1.31577C86.052 1.21354 86.129 1.08101 86.1636 0.934934C86.1982 0.788861 86.1887 0.635804 86.1364 0.495116C86.1019 0.401441 86.0494 0.315515 85.9817 0.242291C85.914 0.169069 85.8325 0.109999 85.7418 0.0684897C85.6512 0.0269804 85.5532 0.00385303 85.4536 0.000441771C85.354 -0.00296949 85.2547 0.0134022 85.1616 0.0486137Z" fill="url(#paint2_radial_811_7913)"/>
<path fill-rule="evenodd" clip-rule="evenodd" d="M90.5944 3.05476C90.3675 3.13954 90.1708 3.2898 90.0291 3.48654C89.8875 3.6833 89.8072 3.91769 89.7986 4.1601C89.79 4.40251 89.8534 4.64204 89.9807 4.84839C90.1079 5.05475 90.2935 5.21866 90.5138 5.31941C90.7341 5.42017 90.9793 5.45322 91.2183 5.4144C91.4575 5.37558 91.6796 5.26664 91.8568 5.10133C92.0341 4.93603 92.1584 4.72181 92.2141 4.48574C92.2698 4.24968 92.2543 4.00238 92.1696 3.77512C92.1138 3.62399 92.0287 3.48541 91.9191 3.36734C91.8096 3.24926 91.6778 3.15402 91.5315 3.08709C91.3851 3.02015 91.227 2.98284 91.0662 2.97729C90.9054 2.97175 90.7451 2.99807 90.5944 3.05476Z" fill="url(#paint3_radial_811_7913)"/>
<path fill-rule="evenodd" clip-rule="evenodd" d="M88.1008 6.76402C87.7935 6.87886 87.5271 7.08238 87.3353 7.34882C87.1435 7.61527 87.035 7.93269 87.0233 8.26095C87.0115 8.58921 87.0972 8.91358 87.2696 9.19303C87.442 9.47249 87.6932 9.6945 87.9915 9.83098C88.2898 9.96747 88.6218 10.0123 88.9456 9.95982C89.2694 9.90734 89.5702 9.75991 89.8103 9.53615C90.0505 9.31238 90.2189 9.02235 90.2945 8.70271C90.37 8.38307 90.3493 8.04818 90.2347 7.74037C90.1587 7.53589 90.0431 7.34842 89.8947 7.18867C89.7463 7.02892 89.5679 6.90004 89.3697 6.80936C89.1715 6.71869 88.9575 6.66803 88.7397 6.66024C88.522 6.65246 88.3049 6.68773 88.1008 6.76402Z" fill="url(#paint4_radial_811_7913)"/>
<path fill-rule="evenodd" clip-rule="evenodd" d="M83.1346 10.6335C82.794 10.7622 82.499 10.9891 82.287 11.2855C82.075 11.582 81.9554 11.9347 81.9434 12.2991C81.9313 12.6636 82.0274 13.0234 82.2193 13.3332C82.4113 13.6431 82.6906 13.889 83.022 14.04C83.3533 14.191 83.7219 14.2403 84.0813 14.1817C84.4406 14.1232 84.7745 13.9592 85.041 13.7107C85.3074 13.4622 85.4943 13.1402 85.5782 12.7853C85.6621 12.4305 85.6392 12.0587 85.5122 11.717C85.4277 11.4892 85.2989 11.2803 85.1335 11.1024C84.9681 10.9245 84.7692 10.781 84.5483 10.6804C84.3273 10.5797 84.0887 10.5237 83.8461 10.5157C83.6034 10.5076 83.3617 10.5477 83.1346 10.6335Z" fill="url(#paint5_radial_811_7913)"/>
<path fill-rule="evenodd" clip-rule="evenodd" d="M77.1457 13.9554C76.7857 14.0893 76.4734 14.3269 76.2483 14.6385C76.0233 14.9502 75.8956 15.3216 75.8815 15.706C75.8673 16.0902 75.9672 16.4701 76.1687 16.7976C76.3701 17.125 76.6641 17.3852 77.0132 17.5452C77.3624 17.7053 77.7511 17.758 78.1301 17.6967C78.5092 17.6354 78.8616 17.4629 79.1428 17.201C79.424 16.939 79.6212 16.5994 79.7096 16.2252C79.7979 15.8509 79.7735 15.4588 79.6393 15.0985C79.4596 14.616 79.0961 14.2246 78.6286 14.0103C78.161 13.796 77.6278 13.7762 77.1457 13.9554Z" fill="url(#paint6_radial_811_7913)"/>
<path fill-rule="evenodd" clip-rule="evenodd" d="M58.7664 19.2392C58.3851 19.3813 58.0546 19.6335 57.8165 19.9639C57.5785 20.2942 57.4436 20.6878 57.4288 21.0949C57.4141 21.502 57.5203 21.9044 57.7339 22.2511C57.9475 22.5978 58.2589 22.8733 58.6288 23.0428C58.9988 23.2122 59.4105 23.268 59.812 23.203C60.2136 23.1381 60.587 22.9553 60.8848 22.6778C61.1827 22.4004 61.3917 22.0407 61.4855 21.6443C61.5792 21.2478 61.5535 20.8324 61.4115 20.4506C61.2199 19.9396 60.8341 19.5254 60.3385 19.2984C59.8428 19.0714 59.2776 19.0501 58.7664 19.2392Z" fill="url(#paint7_radial_811_7913)"/>
<path fill-rule="evenodd" clip-rule="evenodd" d="M52.5277 19.7808C52.2103 19.8998 51.935 20.1105 51.737 20.3861C51.5389 20.6618 51.427 20.99 51.4151 21.3293C51.4032 21.6687 51.4921 22.004 51.6705 22.2928C51.8489 22.5816 52.1086 22.811 52.4171 22.952C52.7256 23.0929 53.0688 23.1391 53.4035 23.0847C53.7382 23.0304 54.0493 22.8779 54.2974 22.6465C54.5456 22.4151 54.7197 22.1152 54.7978 21.7847C54.8758 21.4543 54.8543 21.1081 54.7361 20.7899C54.6577 20.5781 54.5383 20.3838 54.3848 20.2183C54.2312 20.0529 54.0465 19.9194 53.8413 19.8256C53.6361 19.7319 53.4144 19.6796 53.189 19.6719C52.9636 19.6642 52.7388 19.7013 52.5277 19.7808Z" fill="url(#paint8_radial_811_7913)"/>
<path fill-rule="evenodd" clip-rule="evenodd" d="M46.3428 18.156C46.0249 18.2746 45.7494 18.4849 45.5508 18.7604C45.3523 19.0359 45.2399 19.3641 45.2277 19.7037C45.2155 20.0432 45.304 20.3787 45.4822 20.6678C45.6604 20.9569 45.9203 21.1866 46.2288 21.3278C46.5373 21.4689 46.8807 21.5152 47.2156 21.4609C47.5504 21.4066 47.8617 21.2541 48.11 21.0226C48.3583 20.7911 48.5324 20.491 48.6104 20.1604C48.6884 19.8298 48.6667 19.4835 48.5481 19.1651C48.3886 18.739 48.0669 18.3935 47.6535 18.2045C47.2402 18.0153 46.7689 17.9979 46.3428 18.156Z" fill="url(#paint9_radial_811_7913)"/>
<path fill-rule="evenodd" clip-rule="evenodd" d="M43.1064 15.2086C42.8689 15.2971 42.6629 15.4542 42.5146 15.66C42.3662 15.8658 42.2821 16.1111 42.2731 16.3647C42.2639 16.6184 42.33 16.869 42.4632 17.085C42.5964 17.301 42.7905 17.4726 43.021 17.578C43.2516 17.6834 43.5082 17.7181 43.7583 17.6774C44.0085 17.6368 44.2409 17.5227 44.4264 17.3497C44.6119 17.1766 44.7418 16.9524 44.7999 16.7053C44.8581 16.4582 44.8417 16.1995 44.753 15.9617C44.6335 15.6438 44.3932 15.3862 44.0847 15.2451C43.7763 15.1041 43.4246 15.0908 43.1064 15.2086Z" fill="url(#paint10_radial_811_7913)"/>
<path fill-rule="evenodd" clip-rule="evenodd" d="M46.0784 11.804C45.88 11.8756 45.7074 12.0049 45.5827 12.1752C45.4579 12.3456 45.3867 12.5492 45.3781 12.7603C45.3695 12.9713 45.4238 13.1802 45.5343 13.3601C45.6447 13.5401 45.8062 13.683 45.998 13.7706C46.1899 13.8582 46.4035 13.8867 46.6117 13.8521C46.8197 13.8176 47.0128 13.7218 47.1662 13.5768C47.3197 13.4319 47.4265 13.2444 47.4731 13.0385C47.5196 12.8324 47.5039 12.6172 47.4278 12.4202C47.3284 12.1608 47.1313 11.951 46.879 11.8358C46.6265 11.7205 46.3391 11.7091 46.0784 11.804Z" fill="url(#paint11_radial_811_7913)"/>
<path fill-rule="evenodd" clip-rule="evenodd" d="M49.8084 9.74063C49.6688 9.7926 49.5479 9.88488 49.4608 10.0058C49.3736 10.1266 49.3243 10.2707 49.3191 10.4197C49.3137 10.5686 49.3527 10.7159 49.431 10.8426C49.5093 10.9694 49.6235 11.0701 49.7589 11.1318C49.8943 11.1936 50.0451 11.2138 50.1919 11.1896C50.3389 11.1656 50.4753 11.0984 50.584 10.9966C50.6928 10.8948 50.7689 10.763 50.8027 10.6178C50.8366 10.4727 50.8267 10.3207 50.7742 10.1812C50.7042 9.99471 50.5632 9.84365 50.3822 9.76108C50.2011 9.67851 49.9948 9.67115 49.8084 9.74063Z" fill="url(#paint12_radial_811_7913)"/>
</g>
<defs>
<radialGradient id="paint0_radial_811_7913" cx="0" cy="0" r="1" gradientUnits="userSpaceOnUse" gradientTransform="translate(68.2651 18.0158) scale(2.88293 2.88738)">
<stop stop-color="#299CD7"/>
<stop offset="0.13" stop-color="#2788C9"/>
<stop offset="0.36" stop-color="#2368B2"/>
<stop offset="0.59" stop-color="#2151A2"/>
<stop offset="0.81" stop-color="#204498"/>
<stop offset="1" stop-color="#1F3F95"/>
</radialGradient>
<radialGradient id="paint1_radial_811_7913" cx="0" cy="0" r="1" gradientUnits="userSpaceOnUse" gradientTransform="translate(88.8707 0.915179) scale(0.945127 0.946585)">
<stop stop-color="#299CD7"/>
<stop offset="0.13" stop-color="#2788C9"/>
<stop offset="0.36" stop-color="#2368B2"/>
<stop offset="0.59" stop-color="#2151A2"/>
<stop offset="0.81" stop-color="#204498"/>
<stop offset="1" stop-color="#1F3F95"/>
</radialGradient>
<radialGradient id="paint2_radial_811_7913" cx="0" cy="0" r="1" gradientUnits="userSpaceOnUse" gradientTransform="translate(85.2359 0.685625) scale(0.757886 0.759054)">
<stop stop-color="#299CD7"/>
<stop offset="0.13" stop-color="#2788C9"/>
<stop offset="0.36" stop-color="#2368B2"/>
<stop offset="0.59" stop-color="#2151A2"/>
<stop offset="0.81" stop-color="#204498"/>
<stop offset="1" stop-color="#1F3F95"/>
</radialGradient>
<radialGradient id="paint3_radial_811_7913" cx="0" cy="0" r="1" gradientUnits="userSpaceOnUse" gradientTransform="translate(90.7163 4.08171) scale(1.2245 1.22639)">
<stop stop-color="#299CD7"/>
<stop offset="0.13" stop-color="#2788C9"/>
<stop offset="0.36" stop-color="#2368B2"/>
<stop offset="0.59" stop-color="#2151A2"/>
<stop offset="0.81" stop-color="#204498"/>
<stop offset="1" stop-color="#1F3F95"/>
</radialGradient>
<radialGradient id="paint4_radial_811_7913" cx="0" cy="0" r="1" gradientUnits="userSpaceOnUse" gradientTransform="translate(88.2671 8.16008) scale(1.65843 1.66099)">
<stop stop-color="#299CD7"/>
<stop offset="0.13" stop-color="#2788C9"/>
<stop offset="0.36" stop-color="#2368B2"/>
<stop offset="0.59" stop-color="#2151A2"/>
<stop offset="0.81" stop-color="#204498"/>
<stop offset="1" stop-color="#1F3F95"/>
</radialGradient>
<radialGradient id="paint5_radial_811_7913" cx="0" cy="0" r="1" gradientUnits="userSpaceOnUse" gradientTransform="translate(83.3188 12.1844) scale(1.8427 1.84554)">
<stop stop-color="#299CD7"/>
<stop offset="0.13" stop-color="#2788C9"/>
<stop offset="0.36" stop-color="#2368B2"/>
<stop offset="0.59" stop-color="#2151A2"/>
<stop offset="0.81" stop-color="#204498"/>
<stop offset="1" stop-color="#1F3F95"/>
</radialGradient>
<radialGradient id="paint6_radial_811_7913" cx="0" cy="0" r="1" gradientUnits="userSpaceOnUse" gradientTransform="translate(77.3389 15.5837) scale(1.94078 1.94378)">
<stop stop-color="#299CD7"/>
<stop offset="0.13" stop-color="#2788C9"/>
<stop offset="0.36" stop-color="#2368B2"/>
<stop offset="0.59" stop-color="#2151A2"/>
<stop offset="0.81" stop-color="#204498"/>
<stop offset="1" stop-color="#1F3F95"/>
</radialGradient>
<radialGradient id="paint7_radial_811_7913" cx="0" cy="0" r="1" gradientUnits="userSpaceOnUse" gradientTransform="translate(58.9714 20.9686) scale(2.05669 2.05986)">
<stop stop-color="#299CD7"/>
<stop offset="0.13" stop-color="#2788C9"/>
<stop offset="0.36" stop-color="#2368B2"/>
<stop offset="0.59" stop-color="#2151A2"/>
<stop offset="0.81" stop-color="#204498"/>
<stop offset="1" stop-color="#1F3F95"/>
</radialGradient>
<radialGradient id="paint8_radial_811_7913" cx="0" cy="0" r="1" gradientUnits="userSpaceOnUse" gradientTransform="translate(52.7001 21.2215) scale(1.7149 1.71754)">
<stop stop-color="#299CD7"/>
<stop offset="0.13" stop-color="#2788C9"/>
<stop offset="0.36" stop-color="#2368B2"/>
<stop offset="0.59" stop-color="#2151A2"/>
<stop offset="0.81" stop-color="#204498"/>
<stop offset="1" stop-color="#1F3F95"/>
</radialGradient>
<radialGradient id="paint9_radial_811_7913" cx="0" cy="0" r="1" gradientUnits="userSpaceOnUse" gradientTransform="translate(46.5122 19.5968) scale(1.7149 1.71754)">
<stop stop-color="#299CD7"/>
<stop offset="0.13" stop-color="#2788C9"/>
<stop offset="0.36" stop-color="#2368B2"/>
<stop offset="0.59" stop-color="#2151A2"/>
<stop offset="0.81" stop-color="#204498"/>
<stop offset="1" stop-color="#1F3F95"/>
</radialGradient>
<radialGradient id="paint10_radial_811_7913" cx="0" cy="0" r="1" gradientUnits="userSpaceOnUse" gradientTransform="translate(43.2224 16.2832) scale(1.28098 1.28295)">
<stop stop-color="#299CD7"/>
<stop offset="0.13" stop-color="#2788C9"/>
<stop offset="0.36" stop-color="#2368B2"/>
<stop offset="0.59" stop-color="#2151A2"/>
<stop offset="0.81" stop-color="#204498"/>
<stop offset="1" stop-color="#1F3F95"/>
</radialGradient>
<radialGradient id="paint11_radial_811_7913" cx="0" cy="0" r="1" gradientUnits="userSpaceOnUse" gradientTransform="translate(46.1676 12.6941) scale(1.06104 1.06268)">
<stop stop-color="#299CD7"/>
<stop offset="0.13" stop-color="#2788C9"/>
<stop offset="0.36" stop-color="#2368B2"/>
<stop offset="0.59" stop-color="#2151A2"/>
<stop offset="0.81" stop-color="#204498"/>
<stop offset="1" stop-color="#1F3F95"/>
</radialGradient>
<radialGradient id="paint12_radial_811_7913" cx="0" cy="0" r="1" gradientUnits="userSpaceOnUse" gradientTransform="translate(49.8827 10.3806) scale(0.75194 0.753101)">
<stop stop-color="#299CD7"/>
<stop offset="0.13" stop-color="#2788C9"/>
<stop offset="0.36" stop-color="#2368B2"/>
<stop offset="0.59" stop-color="#2151A2"/>
<stop offset="0.81" stop-color="#204498"/>
<stop offset="1" stop-color="#1F3F95"/>
</radialGradient>
<clipPath id="clip0_811_7913">
<rect width="108" height="59" fill="white"/>
</clipPath>
</defs>
</svg>
