<svg width="72" height="79" viewBox="0 0 72 79" fill="none" xmlns="http://www.w3.org/2000/svg">
<path d="M33.7147 0.221071C33.4278 2.06984 33.3298 3.81647 32.6754 5.60187C32.084 7.22527 31.3212 8.80287 30.5163 10.3347C28.9941 13.2293 27.2829 16.0324 25.2954 18.6276C21.3797 23.7408 16.4982 28.1041 10.9802 31.3927C7.86229 33.2485 4.61145 34.6571 1.13692 35.6467C-0.0458314 35.9812 0.493049 37.9004 1.63732 37.4954C14.3051 32.9985 25.5897 23.7937 31.675 11.6056C32.5534 9.84842 33.3687 8.0349 34.0056 6.17909C34.632 4.35854 35.2968 1.94985 34.2925 0.146878C34.1561 -0.0679282 33.7602 -0.0500799 33.7147 0.221071Z" fill="#F8F8F8"/>
<path d="M0.320249 37.0125C6.83241 38.7873 12.7076 42.1855 17.4385 47.0379C22.5615 52.2919 26.1552 58.9123 28.8145 65.7258C29.5843 67.7013 30.2842 69.6909 30.9281 71.7122C31.5894 73.7934 32.0829 75.9414 32.8002 77.9945C33.2936 79.3996 35.2916 78.8432 35.0118 77.3818C34.2699 73.4695 32.8072 69.5395 31.3935 65.8247C29.9798 62.1096 28.3491 58.479 26.3125 55.0699C22.6137 48.8757 17.6482 43.3046 11.3881 39.6527C7.98327 37.6701 4.37553 36.3813 0.44208 36.1277C-0.0758114 36.0995 -0.1668 36.8848 0.319604 37.0116L0.320249 37.0125Z" fill="#F8F8F8"/>
<path d="M34.1791 2.17881C34.9139 3.75641 35.5403 5.36926 36.3487 6.90107C37.1815 8.48922 38.1298 10.0035 39.0886 11.5071C40.9502 14.4194 42.9763 17.2048 45.2439 19.8283C49.534 24.7865 54.6778 29.1497 60.6341 31.9353C63.9024 33.4671 67.3248 34.4672 70.9082 34.9004C72.3674 35.08 72.3604 32.7629 70.9082 32.5938C63.0523 31.6466 55.9561 27.3469 50.3321 21.9031C47.2948 18.9557 44.6353 15.6455 42.1368 12.24C40.8841 10.5287 39.7188 8.75029 38.508 7.01069C37.2903 5.25351 35.9291 3.61253 34.6833 1.87293C34.4664 1.56657 34.0181 1.82667 34.1791 2.17881Z" fill="#F8F8F8"/>
<path d="M69.3328 33.9286C63.2056 38.0557 57.929 43.222 53.1454 48.8491C48.3164 54.5292 44.0161 60.6667 40.362 67.1746C39.3577 68.967 38.3989 70.7805 37.4856 72.6293C36.6178 74.3865 35.3441 76.369 35.2356 78.3728C35.2006 78.9327 35.9425 79.2038 36.3099 78.8235C37.5381 77.5629 38.1295 75.6683 38.8993 74.1083C39.6972 72.4849 40.537 70.8897 41.4083 69.3121C43.1825 66.104 45.1176 62.9841 47.1682 59.9555C51.2624 53.9163 55.9479 48.3913 61.0077 43.1617C63.8561 40.2213 66.848 37.3936 69.8224 34.58C70.1548 34.2631 69.7178 33.668 69.3328 33.9286Z" fill="#F8F8F8"/>
<path d="M17.7331 34.7128C20.4836 33.3712 22.912 31.6386 25.1132 29.494C26.1979 28.4376 27.1743 27.2861 28.0771 26.0677C28.9834 24.8492 29.7602 23.6238 30.2186 22.1659C30.2886 21.93 29.9667 21.7328 29.7987 21.923C28.8504 22.997 28.0596 24.1767 27.2023 25.3211C26.3169 26.5008 25.3407 27.6206 24.3259 28.6912C22.3103 30.8181 19.9797 32.7478 17.5442 34.3607C17.3308 34.5121 17.5092 34.8185 17.7331 34.7128Z" fill="#88D613"/>
<path d="M17.9569 38.2382C19.5141 37.5163 21.0293 36.6782 22.4639 35.731C23.8532 34.8119 25.2843 33.7379 26.3167 32.4208C26.4427 32.2588 26.2817 31.97 26.0752 32.1144C24.714 33.1075 23.4682 34.2695 22.114 35.2872C20.7528 36.3049 19.3181 37.224 17.8238 38.0269C17.6909 38.1009 17.8134 38.3086 17.9569 38.2382Z" fill="#F8F8F8"/>
<path d="M35.9709 67.3755C38.3259 63.4104 40.8804 59.5508 43.5854 55.8283C44.957 53.9444 46.3883 52.1237 47.83 50.3032C49.2262 48.5354 50.8219 46.8522 52.0397 44.9471C52.2531 44.6125 51.7982 44.3414 51.5393 44.5491C49.7651 45.9823 48.3234 47.8664 46.8817 49.6341C45.44 51.4018 44.0963 53.2576 42.7876 55.124C40.1001 58.9658 37.717 62.9662 35.558 67.139C35.418 67.3996 35.8099 67.6431 35.9709 67.3755Z" fill="#88D613"/>
<path d="M54.3277 41.6616C55.276 40.7495 56.2803 39.8867 57.3301 39.0909C57.848 38.693 58.3694 38.3056 58.8873 37.9007C59.4052 37.4957 59.8916 37.052 60.392 36.6188C60.5985 36.4392 60.3395 36.1786 60.1226 36.2667C59.5032 36.5378 58.9118 36.816 58.3414 37.1787C57.778 37.5379 57.2496 37.9464 56.7282 38.376C55.6995 39.2317 54.7231 40.1437 53.7994 41.1086C53.4494 41.4818 53.9708 42.0067 54.3277 41.6616Z" fill="#F8F8F8"/>
</svg>
