<svg width="72" height="81" viewBox="0 0 72 81" fill="none" xmlns="http://www.w3.org/2000/svg">
<path d="M7.39062 -7.65425C6.89062 -5.07615 6.78124 -2.49404 6.07032 0.0645552C5.35938 2.60365 4.26172 5.01376 2.83982 7.23646C-0.0703764 11.8068 -4.28908 15.4748 -9.44118 17.2755C-10.242 17.5567 -10.1912 18.9864 -9.23024 18.8653C-4.01934 18.2168 0.218963 21.545 3.39876 25.295C6.48856 28.9434 9.96906 33.1348 10.8402 37.955C11.012 38.8768 12.43 38.8143 12.641 37.955C13.6918 33.6659 15.641 29.6933 18.2816 26.154C20.8011 22.7634 24.1214 19.0524 27.9613 17.1423C28.43 16.904 28.5902 16.0837 28.141 15.7321C24.0824 12.5602 20.0629 9.54066 16.731 5.56005C13.3794 1.57175 10.9419 -2.95165 8.66065 -7.61194C8.33253 -8.29163 7.21145 -7.82289 7.43015 -7.09242C8.98875 -2.06122 11.8716 2.49739 15.149 6.57959C18.4185 10.6382 22.399 14.7007 27.047 17.1386V15.5878C25.1875 16.9784 23.2267 18.1659 21.4884 19.7167C19.7696 21.2558 18.1876 22.9862 16.8165 24.8456C14.047 28.6151 12.0665 32.9354 10.836 37.4476H12.6368C12.2149 34.7171 10.9376 32.2874 9.37505 30.0374C7.81645 27.7757 6.09385 25.5569 4.26565 23.5062C0.777352 19.596 -3.98435 16.3851 -9.45335 17.2679C-9.31273 17.7874 -9.16429 18.307 -9.02366 18.8265C-3.79316 16.6546 0.777143 13.0062 3.96434 8.31449C5.55414 5.97469 6.79244 3.38479 7.61274 0.673885C8.39399 -1.90421 8.97214 -5.02532 8.30415 -7.66592C8.2104 -8.0917 7.48046 -8.13471 7.39062 -7.65425Z" fill="#A6CE39"/>
<path d="M43.3008 18.6151C40.5508 25.5956 36.9414 32.3061 32.0118 37.9861C27.1212 43.615 21.1138 48.1581 14.3398 51.2751C13.4999 51.6657 14.0507 52.7243 14.7617 52.8142C18.1133 53.2556 21.1133 55.2126 23.7617 57.2048C26.4023 59.1853 28.8828 61.4236 31.1836 63.7946C35.7617 68.5055 39.6328 73.8726 42.7036 79.6736C43.1254 80.4626 44.2036 80.3454 44.6528 79.6736C47.9926 74.6541 51.9536 70.1033 56.3008 65.9236C60.5625 61.822 65.3711 57.7752 70.5898 54.9436C71.3788 54.5139 71.2187 53.5022 70.5898 53.0452C64.9179 48.9046 59.6208 44.4866 54.7888 39.3732C49.9607 34.2638 45.9997 28.5212 41.9368 22.8142C41.675 22.4431 40.9368 22.654 41.136 23.154C43.8665 29.7438 48.1946 35.623 52.937 40.935C57.7182 46.2944 63.335 51.216 69.476 54.947V53.0486C66.8549 54.7674 64.1869 56.3689 61.6752 58.2478C59.2064 60.0994 56.8354 62.0994 54.5971 64.2166C50.0776 68.4861 46.1479 73.365 42.6991 78.5256H44.6483C41.3671 72.2951 37.16 66.5846 32.1173 61.6546C27.3087 56.9554 21.6563 52.0257 14.7463 51.1426C14.8869 51.6543 15.0275 52.1738 15.1682 52.6817C28.7462 46.3809 40.7192 33.6937 43.6992 18.7127C43.7421 18.4666 43.3906 18.3768 43.3008 18.6151Z" fill="#1B09A2"/>
<path d="M59.2032 17.6665C59.793 20.6977 57.043 22.936 54.9532 24.5962C54.5743 24.897 54.7735 25.647 55.254 25.7173C56.3946 25.8892 57.5157 26.2954 58.4024 27.0454C58.8633 27.4361 59.293 27.8736 59.6329 28.3735C59.9336 28.8032 60.1836 29.3149 60.754 29.4126C61.3633 29.522 61.8634 29.0025 62.3126 28.6743C62.9141 28.2329 63.5118 27.7837 64.1134 27.3462C65.3439 26.4361 66.5822 25.5259 67.8126 24.6157C68.1016 24.4048 68.3321 23.9556 68.0743 23.6157C67.1524 22.3969 66.0157 21.4555 64.8634 20.4673C64.3243 19.9986 63.754 19.5377 63.2618 19.0064C62.7735 18.4869 62.4415 17.8462 62.0001 17.2876C61.5391 16.6978 60.422 17.1783 60.4884 17.9166C60.6368 19.526 62.047 20.8072 63.2892 21.6978C64.5275 22.5962 65.8986 23.3384 66.9181 24.5064C66.9689 24.1274 67.0196 23.7368 67.0665 23.358C65.9259 24.2095 64.797 25.0494 63.6563 25.8971C63.086 26.3189 62.5157 26.7486 61.9571 27.1666C61.6368 27.4048 61.3282 27.6353 61.0157 27.8775C60.9962 27.8892 60.7267 28.0767 60.7345 28.0884C60.8556 28.0884 60.9727 28.1002 61.1055 28.1002C61.0548 28.0494 61.0157 27.9908 60.9766 27.9283C60.5352 27.0181 59.5078 26.2369 58.6758 25.6978C57.7461 25.0884 56.7266 24.6392 55.625 24.4361C55.6758 24.8462 55.7344 25.2564 55.7852 25.6666C57.1563 24.6275 58.5235 23.5768 59.4454 22.0963C60.3243 20.6861 60.6954 19.026 60.0938 17.4361C59.8712 16.8892 59.0938 17.0884 59.2032 17.6665Z" fill="#88D613"/>
<path d="M52.0626 -4.31462C52.043 -1.21302 49.4024 0.704879 47.2735 2.49398C46.9219 2.78304 47.2149 3.3846 47.6445 3.37289C49.4961 3.32211 51.1836 4.58379 51.6328 6.38459C51.7227 6.7635 52.211 6.96271 52.543 6.75568C53.6836 6.02521 54.8047 5.28688 55.9336 4.54478C56.4141 4.22447 57.0625 3.93541 57.4453 3.49398C57.875 3.0057 57.6758 2.35338 57.3555 1.85338C56.6758 0.775279 55.875 -0.236421 55.0664 -1.21692C54.6445 -1.72864 54.2382 -2.27552 53.7578 -2.73642C53.3476 -3.12704 52.7266 -3.63486 52.1289 -3.55673C51.9296 -3.5372 51.7187 -3.42782 51.6796 -3.21689C51.4609 -2.18569 52.5078 -1.24809 53.1288 -0.556691C53.8788 0.294869 54.6093 1.16211 55.3671 2.00191C55.5468 2.20113 55.7187 2.40035 55.8984 2.60347C55.957 2.67378 56.0781 2.873 56.1601 2.90425C56.2304 3.02534 56.2812 2.99409 56.3085 2.82612C56.4296 2.65425 56.4296 2.6269 56.3085 2.72456C56.0976 2.76362 55.7968 3.0644 55.6171 3.1855C55.3554 3.35737 55.0976 3.53706 54.8359 3.70503C53.8554 4.35347 52.875 5.01363 51.9062 5.67383C52.207 5.79492 52.5156 5.92383 52.8163 6.04492C52.1757 3.80662 49.9765 2.18552 47.6249 2.33402C47.7148 2.65433 47.7968 2.97464 47.8867 3.29496C50.3359 1.51376 53.0586 -1.04484 52.4179 -4.37694C52.3827 -4.57225 52.0626 -4.51384 52.0626 -4.31462Z" fill="#1B09A2"/>
<path d="M4.9221 58.8188C5.87132 60.9204 4.11351 63.0883 2.8205 64.5805C2.46112 64.9907 2.55878 65.7289 3.16034 65.8696C5.08224 66.311 6.57055 67.7798 6.98065 69.7094C7.12909 70.4282 8.23065 70.5688 8.57045 69.9204C9.64855 67.8423 11.3204 66.2212 13.4415 65.229C14.2033 64.8696 13.922 63.7602 13.2228 63.5493C11.8322 63.1196 10.5509 62.5376 9.33219 61.7485C8.75406 61.3695 8.19159 60.9477 7.66029 60.4868C7.10951 60.0063 6.57049 59.4477 5.87909 59.2056C5.42987 59.0454 5.01972 59.5259 5.12909 59.9556C5.32831 60.6938 5.9494 61.2759 6.50799 61.7564C7.12908 62.2876 7.77749 62.7759 8.45719 63.2252C9.77749 64.0962 11.2267 64.8033 12.7189 65.3268C12.6486 64.7682 12.5705 64.2057 12.5001 63.6471C10.1603 64.7877 8.19934 66.7174 7.05874 69.0573C7.58999 69.1276 8.11735 69.1979 8.64855 69.2682C8.05871 66.858 6.02744 64.8463 3.57044 64.4088C3.67982 64.8385 3.80091 65.2682 3.91028 65.6979C5.51188 63.6667 7.35948 60.9674 5.67978 58.4088C5.36337 57.8971 4.69163 58.3071 4.9221 58.8188Z" fill="#88D613"/>
</svg>
