<svg width="74" height="84" viewBox="0 0 74 84" fill="none" xmlns="http://www.w3.org/2000/svg">
<path d="M22.2906 83.8727C22.1812 83.8688 22.0758 83.8649 21.9703 83.8532H21.9664C20.8453 83.7282 19.9117 82.9274 19.6226 81.8337L15.0484 69.0567C15.0328 69.0176 15.025 68.9746 15.0094 68.9317C14.9781 68.8106 14.8765 68.7168 14.7515 68.709L14.6656 68.6973L2.4316 66.5489V66.545C1.2832 66.4082 0.345703 65.5723 0.0761034 64.4473C-0.193427 63.3223 0.267514 62.1504 1.2284 61.5098L12.0994 52.916C12.1346 52.8886 12.1697 52.8613 12.2088 52.8378V52.8418C12.3143 52.7753 12.3689 52.6464 12.3416 52.5253V52.4785L10.2283 40.4585C9.99782 39.3296 10.4939 38.1773 11.4744 37.5679C12.451 36.9585 13.7049 37.021 14.6189 37.7241L24.6969 45.0053L24.736 45.0366H24.7399C24.8336 45.1108 24.9625 45.1225 25.068 45.0639L25.193 45.0053L37.552 39.8334H37.5481C38.5559 39.31 39.7864 39.4584 40.6419 40.2084C41.4973 40.9584 41.806 42.1576 41.4153 43.2279L37.8215 55.1419L37.7903 55.2279C37.7473 55.3411 37.7746 55.47 37.8645 55.5521C37.8957 55.5794 37.9231 55.6107 37.9543 55.6458L46.6887 65.8648H46.6848C47.4856 66.6656 47.716 67.8726 47.2668 68.9117C46.8176 69.9508 45.7785 70.6109 44.6496 70.5758L31.0557 70.1579H31.0478V70.1618C30.9346 70.1618 30.8291 70.2243 30.7783 70.3258L24.751 82.3568V82.3529C24.2862 83.2865 23.3335 83.8766 22.2906 83.8727ZM17.3844 68.2787L21.9469 81.0597C21.9626 81.0987 21.9743 81.1378 21.986 81.1808C22.0133 81.3019 22.1149 81.3917 22.2399 81.4073C22.3649 81.4191 22.486 81.3566 22.5407 81.2433L28.568 69.2163C29.0524 68.2553 30.0446 67.6616 31.1188 67.6929L44.7128 68.1108C44.8417 68.1187 44.955 68.0444 44.9979 67.9273C45.0565 67.814 45.0253 67.6773 44.9276 67.5952C44.8964 67.564 44.869 67.5327 44.8378 67.5015L36.1073 57.2825C35.3495 56.5247 35.0956 55.3958 35.4628 54.388L39.0566 42.474H39.0605C39.0683 42.4466 39.08 42.4193 39.0878 42.388C39.1425 42.2709 39.1073 42.1341 39.0058 42.056C38.9159 41.9662 38.7753 41.9505 38.6659 42.0209C38.6269 42.0443 38.5839 42.0638 38.5409 42.0794L26.1889 47.2396C25.2358 47.7357 24.0834 47.6342 23.2319 46.974L13.1579 39.7006L13.1189 39.6694V39.6655C13.0173 39.5912 12.8806 39.5834 12.7751 39.6498C12.6657 39.7162 12.615 39.8412 12.6423 39.9662V40.0131L14.7517 52.0441V52.0402C14.9744 53.1418 14.5095 54.2668 13.5798 54.8918L2.70481 63.4856C2.66966 63.513 2.6345 63.5403 2.59934 63.5598C2.48996 63.6301 2.43528 63.7591 2.46653 63.8841C2.49388 64.0091 2.59934 64.0989 2.72825 64.1106C2.7556 64.1145 2.78685 64.1184 2.81419 64.1223L15.0482 66.2707C16.1615 66.4035 17.0837 67.1967 17.3844 68.2787Z" fill="#1B09A2"/>
<path d="M25.981 35.9501C25.8834 35.9501 25.7857 35.9383 25.6881 35.9149C25.3717 35.8407 25.0982 35.6376 24.9303 35.3602C24.7584 35.079 24.7076 34.7469 24.7857 34.4266C25.6412 30.9344 27.4185 26.7196 27.5591 26.3954C30.0708 20.0751 36.2036 11.7314 43.5631 4.61442C50.0709 -1.66678 60.5791 -9.98758 73.7581 -13.9476C74.4105 -14.1429 75.094 -13.7757 75.2893 -13.1234C75.4886 -12.471 75.1175 -11.7875 74.469 -11.5882C61.766 -7.77566 51.578 0.294836 45.274 6.38884C36.7506 14.6232 31.712 22.5998 29.84 27.3188L29.8283 27.3462C29.8127 27.3891 28.0002 31.6548 27.176 35.0181V35.0142C27.0432 35.565 26.5471 35.9517 25.9807 35.9517L25.981 35.9501Z" fill="#1B09A2"/>
<path d="M50.9463 51.082C50.3643 51.082 49.8643 50.6758 49.7432 50.1094C49.6221 49.5429 49.9112 48.9649 50.4424 48.7305C58.3643 45.1836 76.0444 39.2227 92.3254 39.2227H92.6692V39.2188C93.3293 39.2461 93.8528 39.7891 93.8528 40.4493C93.8528 41.1133 93.3293 41.6563 92.6692 41.6837H92.3332C76.4662 41.6837 59.2002 47.5117 51.4582 50.9805V50.9766C51.2942 51.047 51.1221 51.0859 50.9463 51.082Z" fill="#1B09A2"/>
<path d="M43.3445 54.9764C42.7859 54.9764 42.3015 54.6054 42.1531 54.0702C42.0085 53.535 42.239 52.9686 42.7195 52.6835C43.6062 52.1601 44.5672 51.6249 45.575 51.0937V51.0976C46.1726 50.7773 46.9188 51.0078 47.2352 51.6093C47.5516 52.2109 47.3211 52.957 46.7235 53.2734C45.7469 53.789 44.8251 54.3046 43.9657 54.8046V54.8085C43.7782 54.9179 43.5632 54.9764 43.3445 54.9764Z" fill="#88D613"/>
<path d="M57.7581 12.2038C57.2112 12.2038 56.7269 11.8444 56.5745 11.321C56.4182 10.7975 56.6292 10.2351 57.0901 9.93817H57.0862C60.5901 7.68817 64.2776 5.74287 68.1092 4.12177C68.7264 3.88349 69.4256 4.17646 69.6873 4.78974C69.9451 5.40302 69.6717 6.11004 69.0701 6.38744C65.367 7.95774 61.8045 9.83664 58.4221 12.0085C58.2229 12.1375 57.9925 12.2038 57.7581 12.2038Z" fill="#1B09A2"/>
<path d="M50.0479 18.0041C49.5361 18.0041 49.083 17.6877 48.9034 17.2111C48.7237 16.7346 48.8565 16.1955 49.2354 15.8556C50.4815 14.7618 51.794 13.7072 53.1416 12.6954V12.6993C53.6846 12.2892 54.458 12.3985 54.8643 12.9454C55.2745 13.4884 55.1612 14.2618 54.6182 14.6681C53.3291 15.6447 52.0635 16.6603 50.8643 17.7072C50.6377 17.9064 50.3447 18.0119 50.0479 18.0041Z" fill="#88D613"/>
<path d="M36.2658 35.9498C35.8596 35.9537 35.4807 35.7505 35.2502 35.4146C35.0198 35.0787 34.9729 34.6529 35.1174 34.274C35.2346 33.9654 38.1486 26.6568 46.3834 18.501H46.3873C46.8717 18.0244 47.6529 18.0283 48.1334 18.5127C48.61 19.001 48.6022 19.7822 48.1178 20.2588C40.2819 28.0166 37.4378 35.1028 37.4148 35.1808V35.1769C37.2234 35.6457 36.7697 35.9537 36.2658 35.9498Z" fill="#1B09A2"/>
<path d="M62.3762 36.0354C61.8019 36.0314 61.3059 35.633 61.1848 35.0705C61.0598 34.5119 61.341 33.9377 61.8605 33.6916C69.548 30.1486 77.1415 27.4728 84.4465 25.7385V25.7424C85.095 25.6135 85.7317 26.0237 85.884 26.6682C86.0363 27.3127 85.6536 27.9612 85.0168 28.137C77.8762 29.8323 70.4308 32.4534 62.8918 35.9261V35.93C62.7278 36.0042 62.5519 36.0393 62.3762 36.0354Z" fill="#1B09A2"/>
<path d="M55.6223 39.3678C55.052 39.3678 54.5598 38.985 54.4231 38.4342C54.2863 37.8834 54.5442 37.3092 55.0481 37.0475C56.009 36.5397 56.9895 36.0397 57.9622 35.5553C58.5637 35.2936 59.263 35.5514 59.556 36.1373C59.845 36.7272 59.6263 37.4381 59.056 37.7623C58.0989 38.2389 57.1341 38.7389 56.1888 39.2311V39.2272C56.013 39.321 55.8176 39.3678 55.6223 39.3678Z" fill="#88D613"/>
<path d="M45.7394 45.0905C45.1926 45.0905 44.7121 44.7311 44.5558 44.2077C44.4035 43.6803 44.6144 43.1179 45.0754 42.8249C46.4621 41.9381 48.716 40.5437 51.5754 38.9421L51.5715 38.9381C52.1652 38.6335 52.8879 38.8522 53.2121 39.4303C53.5363 40.0085 53.3449 40.7428 52.7785 41.0865C49.9699 42.6607 47.7629 44.0279 46.4035 44.899L46.3996 44.8951C46.2043 45.024 45.9738 45.0905 45.7394 45.0905Z" fill="#1B09A2"/>
<path d="M74.1141 18.1178C73.5281 18.1178 73.0203 17.6998 72.9071 17.1256C72.7938 16.5475 73.1024 15.9733 73.6454 15.7467C78.2626 13.8561 82.9892 12.2389 87.7934 10.8951C88.1098 10.8013 88.4496 10.8365 88.7426 10.9966C89.0316 11.1568 89.2465 11.4263 89.3324 11.7427C89.4223 12.063 89.3793 12.4029 89.2152 12.688C89.0512 12.9732 88.7777 13.1841 88.4574 13.2662C83.7426 14.5826 79.1097 16.1724 74.5784 18.024C74.4339 18.0865 74.2742 18.1178 74.1141 18.1178Z" fill="#1B09A2"/>
<path d="M64.6697 22.5206C64.1033 22.5206 63.6072 22.1339 63.4705 21.5831C63.3377 21.0323 63.5916 20.462 64.0955 20.2003C65.3533 19.5363 66.658 18.8878 67.9627 18.2628C68.5681 18.0167 69.2557 18.2863 69.5369 18.8761C69.8142 19.462 69.5877 20.1691 69.0173 20.4816C67.7439 21.091 66.4783 21.7238 65.2401 22.3722C65.0643 22.4659 64.8689 22.5167 64.6697 22.5206Z" fill="#88D613"/>
<path d="M46.6102 35.2387C46.1219 35.2387 45.6805 34.9496 45.4852 34.5043C45.286 34.059 45.3719 33.5355 45.7 33.1762C45.8875 32.9809 50.3484 28.1371 59.985 22.4812C60.571 22.1648 61.2975 22.3679 61.6334 22.9382C61.9694 23.5124 61.7936 24.2507 61.2311 24.6062C51.9499 30.0554 47.5591 34.7942 47.5201 34.8402L47.5162 34.8363C47.2857 35.0941 46.9579 35.2387 46.6102 35.2387Z" fill="#1B09A2"/>
<path d="M73.4628 4.2931C72.8924 4.28528 72.3964 3.88685 72.2714 3.32826C72.1503 2.76576 72.4276 2.19546 72.9432 1.94936C73.0526 1.89467 75.6932 0.668157 77.7166 -0.144443C78.0252 -0.277253 78.369 -0.281163 78.6776 -0.156162C78.9862 -0.0272518 79.2323 0.218838 79.3534 0.527428C79.4784 0.836018 79.4705 1.18368 79.3377 1.48837C79.201 1.79306 78.9471 2.02743 78.6346 2.14462C76.6698 2.92587 74.0096 4.16802 73.9862 4.17982H73.9823C73.8221 4.25404 73.6424 4.2931 73.4628 4.2931Z" fill="#1B09A2"/>
</svg>
